<?xml version="1.0" encoding="UTF-8"?>
<!DOCTYPE svg PUBLIC "-//W3C//DTD SVG 1.1//EN" "http://www.w3.org/Graphics/SVG/1.1/DTD/svg11.dtd">
<svg xmlns="http://www.w3.org/2000/svg" version="1.1" width="840px" height="913px" style="shape-rendering:geometricPrecision; text-rendering:geometricPrecision; image-rendering:optimizeQuality; fill-rule:evenodd; clip-rule:evenodd" xmlns:xlink="http://www.w3.org/1999/xlink">
<g><path style="opacity:1" fill="#fded92" d="M 518.5,-0.5 C 538.167,-0.5 557.833,-0.5 577.5,-0.5C 569.788,29.0248 561.788,58.3581 553.5,87.5C 540.765,64.3651 527.765,41.3651 514.5,18.5C 515.672,12.1424 517.006,5.80908 518.5,-0.5 Z"/></g>
<g><path style="opacity:1" fill="#fde98c" d="M 514.5,18.5 C 527.765,41.3651 540.765,64.3651 553.5,87.5C 549.742,104.087 545.409,120.421 540.5,136.5C 540.631,135.761 540.464,135.094 540,134.5C 539.333,135.833 538.667,135.833 538,134.5C 526.919,114.67 515.586,95.0033 504,75.5C 502.092,72.7935 501.259,69.7935 501.5,66.5C 505.058,50.1793 509.391,34.1793 514.5,18.5 Z"/></g>
<g><path style="opacity:1" fill="#fee586" d="M 501.5,66.5 C 501.259,69.7935 502.092,72.7935 504,75.5C 515.586,95.0033 526.919,114.67 538,134.5C 538.667,135.833 539.333,135.833 540,134.5C 540.464,135.094 540.631,135.761 540.5,136.5C 540.185,138.226 540.019,139.893 540,141.5C 542.969,142.737 545.803,144.07 548.5,145.5C 547.127,145.343 545.793,145.51 544.5,146C 561.971,175.779 579.305,205.612 596.5,235.5C 595.833,235.5 595.167,235.5 594.5,235.5C 594.5,234.833 594.167,234.5 593.5,234.5C 593.027,233.094 592.027,232.427 590.5,232.5C 590.027,231.094 589.027,230.427 587.5,230.5C 587.5,229.833 587.167,229.5 586.5,229.5C 586.027,228.094 585.027,227.427 583.5,227.5C 583.027,226.094 582.027,225.427 580.5,225.5C 578.924,224.857 577.59,223.857 576.5,222.5C 575.089,220.461 573.089,219.461 570.5,219.5C 561.382,212.606 551.382,207.273 540.5,203.5C 540.027,202.094 539.027,201.427 537.5,201.5C 535.597,201.204 533.93,200.537 532.5,199.5C 532.167,198.833 531.833,198.167 531.5,197.5C 517.345,173.194 503.178,148.861 489,124.5C 487.872,122.655 487.372,120.655 487.5,118.5C 491.595,100.902 496.261,83.5688 501.5,66.5 Z"/></g>
<g><path style="opacity:1" fill="#fee17f" d="M 487.5,118.5 C 487.372,120.655 487.872,122.655 489,124.5C 503.178,148.861 517.345,173.194 531.5,197.5C 529.021,196.377 526.688,196.377 524.5,197.5C 523.549,198.919 523.216,200.585 523.5,202.5C 522.076,204.515 521.41,206.848 521.5,209.5C 519.925,213.59 518.925,217.923 518.5,222.5C 516.837,224.438 516.171,226.772 516.5,229.5C 514.837,231.438 514.171,233.772 514.5,236.5C 512.96,238.838 512.294,241.505 512.5,244.5C 510.837,246.438 510.171,248.772 510.5,251.5C 510.167,251.5 509.833,251.5 509.5,251.5C 509.657,250.127 509.49,248.793 509,247.5C 484.808,205.774 460.641,164.107 436.5,122.5C 452.906,122.974 469.24,124.307 485.5,126.5C 485.802,123.627 486.469,120.961 487.5,118.5 Z"/></g>
<g><path style="opacity:1" fill="#fdd772" d="M 388.5,124.5 C 390.924,124.192 393.257,124.526 395.5,125.5C 404.901,143.056 414.901,160.222 425.5,177C 430.019,177.175 434.353,177.675 438.5,178.5C 433.5,178.5 428.5,178.5 423.5,178.5C 415.082,178.198 406.748,178.531 398.5,179.5C 392.767,179.647 387.1,180.314 381.5,181.5C 381.918,180.778 382.584,180.278 383.5,180C 374.419,163.836 365.086,147.836 355.5,132C 355.833,131.667 356.167,131.333 356.5,131C 355.552,130.517 354.552,130.351 353.5,130.5C 364.849,127.33 376.515,125.33 388.5,124.5 Z"/></g>
<g><path style="opacity:1" fill="#fdd46c" d="M 353.5,130.5 C 354.552,130.351 355.552,130.517 356.5,131C 356.167,131.333 355.833,131.667 355.5,132C 365.086,147.836 374.419,163.836 383.5,180C 382.584,180.278 381.918,180.778 381.5,181.5C 380.833,181.5 380.5,181.833 380.5,182.5C 374.706,182.965 369.039,183.965 363.5,185.5C 360.99,185.054 358.99,185.72 357.5,187.5C 357.167,187.5 356.833,187.5 356.5,187.5C 354.379,187.325 352.379,187.659 350.5,188.5C 348.708,188.366 347.042,188.699 345.5,189.5C 337.012,174.527 328.512,159.527 320,144.5C 319.092,142.561 317.592,141.561 315.5,141.5C 327.599,136.249 340.266,132.582 353.5,130.5 Z"/></g>
<g><path style="opacity:1" fill="#fdd066" d="M 315.5,141.5 C 317.592,141.561 319.092,142.561 320,144.5C 328.512,159.527 337.012,174.527 345.5,189.5C 344.833,189.5 344.5,189.833 344.5,190.5C 343.833,190.833 343.167,191.167 342.5,191.5C 339.169,191.018 336.503,192.018 334.5,194.5C 334.167,194.5 333.833,194.5 333.5,194.5C 330.169,194.018 327.503,195.018 325.5,197.5C 324.391,197.557 323.391,197.89 322.5,198.5C 318.835,198.502 315.835,199.835 313.5,202.5C 310.605,203.399 307.938,204.733 305.5,206.5C 303.973,206.427 302.973,207.094 302.5,208.5C 302.167,208.5 301.833,208.5 301.5,208.5C 300.833,208.5 300.167,208.5 299.5,208.5C 300.406,207.035 301.739,206.035 303.5,205.5C 304.583,204.635 304.749,203.635 304,202.5C 295.14,187.437 286.307,172.437 277.5,157.5C 285.182,153.206 293.182,149.372 301.5,146C 306.111,144.188 310.777,142.688 315.5,141.5 Z"/></g>
<g><path style="opacity:1" fill="#fde98c" d="M 548.5,145.5 C 568.807,152.819 587.807,162.486 605.5,174.5C 655.199,262.891 705.699,350.891 757,438.5C 757.498,435.518 757.665,432.518 757.5,429.5C 758.688,449.392 758.688,469.225 757.5,489C 756.283,496.284 754.949,503.45 753.5,510.5C 753.628,508.345 753.128,506.345 752,504.5C 735.333,475.833 718.667,447.167 702,418.5C 701.503,421.146 701.336,423.813 701.5,426.5C 701.167,426.5 700.833,426.5 700.5,426.5C 700.72,421.9 700.054,417.567 698.5,413.5C 697.5,406.167 696.5,398.833 695.5,391.5C 695.741,389.102 695.074,387.102 693.5,385.5C 693.5,385.167 693.5,384.833 693.5,384.5C 693.88,382.302 693.213,380.635 691.5,379.5C 691.5,378.833 691.5,378.167 691.5,377.5C 691.741,375.102 691.074,373.102 689.5,371.5C 689.167,370.833 688.833,370.167 688.5,369.5C 688.946,366.99 688.28,364.99 686.5,363.5C 686.267,361.938 685.6,360.605 684.5,359.5C 684.829,356.772 684.163,354.438 682.5,352.5C 682.5,352.167 682.5,351.833 682.5,351.5C 682.982,348.169 681.982,345.503 679.5,343.5C 676.912,339.326 674.579,334.993 672.5,330.5C 672.628,328.345 672.128,326.345 671,324.5C 667.059,317.601 662.892,310.934 658.5,304.5C 655.5,300.5 652.5,296.5 649.5,292.5C 649.25,290.326 648.25,288.659 646.5,287.5C 644.263,285.353 642.263,283.02 640.5,280.5C 639.674,278.736 638.341,277.402 636.5,276.5C 636.068,275.29 635.401,274.29 634.5,273.5C 633.674,271.736 632.341,270.402 630.5,269.5C 623.528,262.193 616.528,254.86 609.5,247.5C 609.027,246.094 608.027,245.427 606.5,245.5C 606.5,244.833 606.167,244.5 605.5,244.5C 605.027,243.094 604.027,242.427 602.5,242.5C 600.64,241.061 598.973,239.395 597.5,237.5C 597.167,236.833 596.833,236.167 596.5,235.5C 579.305,205.612 561.971,175.779 544.5,146C 545.793,145.51 547.127,145.343 548.5,145.5 Z"/></g>
<g><path style="opacity:1" fill="#fecc60" d="M 277.5,157.5 C 286.307,172.437 295.14,187.437 304,202.5C 304.749,203.635 304.583,204.635 303.5,205.5C 301.739,206.035 300.406,207.035 299.5,208.5C 294.5,210.664 289.833,213.331 285.5,216.5C 281.007,218.579 276.674,220.912 272.5,223.5C 263.881,207.238 254.548,191.572 244.5,176.5C 254.975,169.424 265.975,163.09 277.5,157.5 Z"/></g>
<g><path style="opacity:1" fill="#feec90" d="M 605.5,174.5 C 614.39,179.438 622.723,185.104 630.5,191.5C 630.372,193.655 630.872,195.655 632,197.5C 673.46,268.765 714.627,340.098 755.5,411.5C 756.266,413.684 756.933,416.018 757.5,418.5C 757.311,421.985 757.311,425.652 757.5,429.5C 757.665,432.518 757.498,435.518 757,438.5C 705.699,350.891 655.199,262.891 605.5,174.5 Z"/></g>
<g><path style="opacity:1" fill="#fdc85a" d="M 244.5,176.5 C 254.548,191.572 263.881,207.238 272.5,223.5C 272.5,224.167 272.5,224.833 272.5,225.5C 269.291,227.265 266.291,229.265 263.5,231.5C 261.205,232.136 259.539,233.469 258.5,235.5C 255.953,236.934 253.619,238.6 251.5,240.5C 249.5,240.5 248.5,241.5 248.5,243.5C 247.128,244.512 245.795,245.512 244.5,246.5C 244.167,246.5 243.833,246.5 243.5,246.5C 233.819,230.464 224.152,214.464 214.5,198.5C 221.582,192.445 228.915,186.612 236.5,181C 239.312,179.672 241.978,178.172 244.5,176.5 Z"/></g>
<g><path style="opacity:1" fill="#4b4123" d="M 423.5,178.5 C 428.5,178.5 433.5,178.5 438.5,178.5C 445.082,178.156 451.416,178.823 457.5,180.5C 445.997,180.107 434.664,179.44 423.5,178.5 Z"/></g>
<g><path style="opacity:1" fill="#000000" d="M 423.5,178.5 C 434.664,179.44 445.997,180.107 457.5,180.5C 458.167,180.5 458.833,180.5 459.5,180.5C 462.287,181.477 465.287,181.81 468.5,181.5C 468.5,183.167 468.5,184.833 468.5,186.5C 467.549,187.919 467.216,189.585 467.5,191.5C 466.069,192.78 465.402,194.447 465.5,196.5C 465.5,197.167 465.5,197.833 465.5,198.5C 463.96,200.838 463.294,203.505 463.5,206.5C 461.837,208.438 461.171,210.772 461.5,213.5C 459.973,217.267 458.973,221.267 458.5,225.5C 457.069,226.78 456.402,228.447 456.5,230.5C 456.5,231.167 456.5,231.833 456.5,232.5C 454.96,234.838 454.294,237.505 454.5,240.5C 452.837,242.438 452.171,244.772 452.5,247.5C 451.069,248.78 450.402,250.447 450.5,252.5C 450.5,253.167 450.5,253.833 450.5,254.5C 448.96,256.838 448.294,259.505 448.5,262.5C 446.837,264.438 446.171,266.772 446.5,269.5C 444.973,273.267 443.973,277.267 443.5,281.5C 442.069,282.78 441.402,284.447 441.5,286.5C 441.5,287.167 441.5,287.833 441.5,288.5C 439.96,290.838 439.294,293.505 439.5,296.5C 437.837,298.438 437.171,300.772 437.5,303.5C 436.069,304.78 435.402,306.447 435.5,308.5C 435.5,309.167 435.5,309.833 435.5,310.5C 433.96,312.838 433.294,315.505 433.5,318.5C 431.719,322.2 430.719,326.2 430.5,330.5C 429.662,330.842 429.328,331.508 429.5,332.5C 428.549,333.919 428.216,335.585 428.5,337.5C 427.069,338.78 426.402,340.447 426.5,342.5C 426.5,343.167 426.5,343.833 426.5,344.5C 424.96,346.838 424.294,349.505 424.5,352.5C 422.837,354.438 422.171,356.772 422.5,359.5C 420.837,361.438 420.171,363.772 420.5,366.5C 419.549,367.919 419.216,369.585 419.5,371.5C 417.899,374.55 416.899,377.884 416.5,381.5C 414.973,385.267 413.973,389.267 413.5,393.5C 412.069,394.78 411.402,396.447 411.5,398.5C 411.5,399.167 411.5,399.833 411.5,400.5C 409.96,402.838 409.294,405.505 409.5,408.5C 407.837,410.438 407.171,412.772 407.5,415.5C 406.069,416.78 405.402,418.447 405.5,420.5C 405.5,421.167 405.5,421.833 405.5,422.5C 403.96,424.838 403.294,427.505 403.5,430.5C 402.549,431.919 402.216,433.585 402.5,435.5C 400.837,437.438 400.171,439.772 400.5,442.5C 398.837,444.438 398.171,446.772 398.5,449.5C 396.757,452.495 395.757,455.829 395.5,459.5C 394.549,460.919 394.216,462.585 394.5,464.5C 392.837,466.438 392.171,468.772 392.5,471.5C 391.069,472.78 390.402,474.447 390.5,476.5C 389.781,478.764 389.448,481.097 389.5,483.5C 387.386,488.194 386.053,493.194 385.5,498.5C 383.837,500.438 383.171,502.772 383.5,505.5C 381.757,508.495 380.757,511.829 380.5,515.5C 379.549,516.919 379.216,518.585 379.5,520.5C 377.837,522.438 377.171,524.772 377.5,527.5C 376.069,528.78 375.402,530.447 375.5,532.5C 374.781,534.764 374.448,537.097 374.5,539.5C 372.899,542.55 371.899,545.884 371.5,549.5C 370.549,550.919 370.216,552.585 370.5,554.5C 368.837,556.438 368.171,558.772 368.5,561.5C 366.757,564.495 365.757,567.829 365.5,571.5C 364.549,572.919 364.216,574.585 364.5,576.5C 362.837,578.438 362.171,580.772 362.5,583.5C 361.069,584.78 360.402,586.447 360.5,588.5C 359.781,590.764 359.448,593.097 359.5,595.5C 357.899,598.55 356.899,601.884 356.5,605.5C 355.549,606.919 355.216,608.585 355.5,610.5C 353.837,612.438 353.171,614.772 353.5,617.5C 351.757,620.495 350.757,623.829 350.5,627.5C 349.262,631.329 348.262,635.329 347.5,639.5C 346.069,640.78 345.402,642.447 345.5,644.5C 344.781,646.764 344.448,649.097 344.5,651.5C 342.899,654.55 341.899,657.884 341.5,661.5C 340.549,662.919 340.216,664.585 340.5,666.5C 338.837,668.438 338.171,670.772 338.5,673.5C 337.069,674.78 336.402,676.447 336.5,678.5C 336.5,679.167 336.5,679.833 336.5,680.5C 334.96,682.838 334.294,685.505 334.5,688.5C 333.593,690.657 332.927,692.99 332.5,695.5C 331.069,696.78 330.402,698.447 330.5,700.5C 329.781,702.764 329.448,705.097 329.5,707.5C 328.596,708.209 328.263,709.209 328.5,710.5C 327.5,710.5 326.5,710.5 325.5,710.5C 323.11,708.98 320.443,707.98 317.5,707.5C 317.027,706.094 316.027,705.427 314.5,705.5C 312.072,703.957 309.406,702.957 306.5,702.5C 305.089,700.461 303.089,699.461 300.5,699.5C 299.514,697.592 297.848,696.592 295.5,696.5C 295.167,696.5 294.833,696.5 294.5,696.5C 294.179,694.952 293.179,694.285 291.5,694.5C 291.179,692.952 290.179,692.285 288.5,692.5C 288.027,691.094 287.027,690.427 285.5,690.5C 282.323,688.32 278.989,686.32 275.5,684.5C 275.027,683.094 274.027,682.427 272.5,682.5C 271.564,681.026 270.23,680.026 268.5,679.5C 268.027,678.094 267.027,677.427 265.5,677.5C 265.027,676.094 264.027,675.427 262.5,675.5C 262.5,674.833 262.167,674.5 261.5,674.5C 261.027,673.094 260.027,672.427 258.5,672.5C 255.459,670.638 252.792,668.305 250.5,665.5C 250.027,664.094 249.027,663.427 247.5,663.5C 244.967,662.034 242.967,660.034 241.5,657.5C 241.027,656.094 240.027,655.427 238.5,655.5C 238.167,654.833 237.833,654.167 237.5,653.5C 237.027,652.094 236.027,651.427 234.5,651.5C 234.5,650.833 234.167,650.5 233.5,650.5C 233.167,648.167 231.833,646.833 229.5,646.5C 229.5,645.833 229.167,645.5 228.5,645.5C 228.167,643.167 226.833,641.833 224.5,641.5C 224.5,640.833 224.167,640.5 223.5,640.5C 223.573,638.973 222.906,637.973 221.5,637.5C 221.5,635.5 220.5,634.5 218.5,634.5C 218.167,633.5 217.5,632.833 216.5,632.5C 216.672,631.508 216.338,630.842 215.5,630.5C 215.5,628.5 214.5,627.5 212.5,627.5C 211.488,626.128 210.488,624.795 209.5,623.5C 209.573,621.973 208.906,620.973 207.5,620.5C 207.573,618.973 206.906,617.973 205.5,617.5C 203.833,615.5 202.167,613.5 200.5,611.5C 200.573,609.973 199.906,608.973 198.5,608.5C 196.668,604.164 194.335,600.164 191.5,596.5C 187.559,588.572 183.226,580.905 178.5,573.5C 176.863,570.183 175.196,566.85 173.5,563.5C 173.585,560.351 172.585,557.684 170.5,555.5C 170.5,555.167 170.5,554.833 170.5,554.5C 170.741,552.102 170.074,550.102 168.5,548.5C 168.068,547.29 167.401,546.29 166.5,545.5C 166.443,544.391 166.11,543.391 165.5,542.5C 165.741,540.102 165.074,538.102 163.5,536.5C 163.5,536.167 163.5,535.833 163.5,535.5C 163.741,533.102 163.074,531.102 161.5,529.5C 161.5,529.167 161.5,528.833 161.5,528.5C 161.741,526.102 161.074,524.102 159.5,522.5C 158.295,516.474 156.961,510.474 155.5,504.5C 155.451,500.922 154.785,497.589 153.5,494.5C 153.5,492.833 153.5,491.167 153.5,489.5C 153.802,485.21 153.136,481.21 151.5,477.5C 151.5,477.167 151.5,476.833 151.5,476.5C 151.5,460.833 151.5,445.167 151.5,429.5C 152.449,425.343 153.116,421.01 153.5,416.5C 154.265,413.904 154.599,411.237 154.5,408.5C 155.903,405.091 156.57,401.425 156.5,397.5C 157.612,395.401 158.279,393.067 158.5,390.5C 158.802,387.627 159.469,384.961 160.5,382.5C 162.163,380.562 162.829,378.228 162.5,375.5C 162.5,374.833 162.5,374.167 162.5,373.5C 163.931,372.22 164.598,370.553 164.5,368.5C 165.167,366.167 165.833,363.833 166.5,361.5C 167.738,359.786 168.405,357.786 168.5,355.5C 169.931,354.22 170.598,352.553 170.5,350.5C 172.539,349.089 173.539,347.089 173.5,344.5C 175.691,339.93 177.691,335.263 179.5,330.5C 181.048,330.179 181.715,329.179 181.5,327.5C 182.338,327.158 182.672,326.492 182.5,325.5C 183.906,325.027 184.573,324.027 184.5,322.5C 185.029,320.216 186.029,318.216 187.5,316.5C 188.674,315.486 189.34,314.153 189.5,312.5C 190.906,312.027 191.573,311.027 191.5,309.5C 192.906,309.027 193.573,308.027 193.5,306.5C 194.167,305.5 194.833,304.5 195.5,303.5C 196.906,303.027 197.573,302.027 197.5,300.5C 197.5,299.833 197.833,299.5 198.5,299.5C 199.401,298.71 200.068,297.71 200.5,296.5C 201.167,295.167 201.833,293.833 202.5,292.5C 204.048,292.179 204.715,291.179 204.5,289.5C 205.833,288.167 207.167,286.833 208.5,285.5C 209.906,285.027 210.573,284.027 210.5,282.5C 211.167,282.5 211.5,282.167 211.5,281.5C 212.906,281.027 213.573,280.027 213.5,278.5C 213.5,277.833 213.833,277.5 214.5,277.5C 215.906,277.027 216.573,276.027 216.5,274.5C 217.167,274.167 217.833,273.833 218.5,273.5C 219.906,273.027 220.573,272.027 220.5,270.5C 220.5,269.833 220.833,269.5 221.5,269.5C 222.906,269.027 223.573,268.027 223.5,266.5C 224.5,265.833 225.5,265.167 226.5,264.5C 227.906,264.027 228.573,263.027 228.5,261.5C 229.167,261.167 229.833,260.833 230.5,260.5C 231.401,259.71 232.068,258.71 232.5,257.5C 233.29,256.599 234.29,255.932 235.5,255.5C 237.167,254.5 238.5,253.167 239.5,251.5C 239.5,250.833 239.833,250.5 240.5,250.5C 242.264,249.674 243.598,248.341 244.5,246.5C 245.795,245.512 247.128,244.512 248.5,243.5C 249.833,242.833 250.833,241.833 251.5,240.5C 253.619,238.6 255.953,236.934 258.5,235.5C 260.754,234.876 262.421,233.543 263.5,231.5C 266.291,229.265 269.291,227.265 272.5,225.5C 276.833,222.833 281.167,220.167 285.5,217.5C 291.35,215.293 296.684,212.293 301.5,208.5C 301.833,208.5 302.167,208.5 302.5,208.5C 304.027,208.573 305.027,207.906 305.5,206.5C 307.938,204.733 310.605,203.399 313.5,202.5C 317.066,202.208 320.066,200.874 322.5,198.5C 323.391,197.89 324.391,197.557 325.5,197.5C 328.649,197.585 331.316,196.585 333.5,194.5C 333.833,194.5 334.167,194.5 334.5,194.5C 337.486,194.097 340.152,193.097 342.5,191.5C 343.167,191.167 343.833,190.833 344.5,190.5C 346.621,190.675 348.621,190.341 350.5,189.5C 352.898,189.741 354.898,189.074 356.5,187.5C 356.833,187.5 357.167,187.5 357.5,187.5C 359.898,187.741 361.898,187.074 363.5,185.5C 369.039,183.965 374.706,182.965 380.5,182.5C 386.791,182.505 392.791,181.505 398.5,179.5C 406.748,178.531 415.082,178.198 423.5,178.5 Z"/></g>
<g><path style="opacity:1" fill="#534625" d="M 398.5,179.5 C 392.791,181.505 386.791,182.505 380.5,182.5C 380.5,181.833 380.833,181.5 381.5,181.5C 387.1,180.314 392.767,179.647 398.5,179.5 Z"/></g>
<g><path style="opacity:1" fill="#877641" d="M 459.5,180.5 C 462.833,180.5 466.167,180.5 469.5,180.5C 469.795,182.735 469.461,184.735 468.5,186.5C 468.5,184.833 468.5,183.167 468.5,181.5C 465.287,181.81 462.287,181.477 459.5,180.5 Z"/></g>
<g><path style="opacity:1" fill="#fddc78" d="M 436.5,122.5 C 460.641,164.107 484.808,205.774 509,247.5C 509.49,248.793 509.657,250.127 509.5,251.5C 508.781,253.764 508.448,256.097 508.5,258.5C 507.076,260.515 506.41,262.848 506.5,265.5C 505.469,267.961 504.802,270.627 504.5,273.5C 503.549,274.919 503.216,276.585 503.5,278.5C 501.837,280.438 501.171,282.772 501.5,285.5C 499.837,287.438 499.171,289.772 499.5,292.5C 497.96,294.838 497.294,297.505 497.5,300.5C 497.167,300.5 496.833,300.5 496.5,300.5C 484.259,279.438 471.759,257.771 459,235.5C 458.329,234.748 457.496,234.414 456.5,234.5C 456.5,233.833 456.5,233.167 456.5,232.5C 456.5,231.833 456.5,231.167 456.5,230.5C 457.931,229.22 458.598,227.553 458.5,225.5C 458.973,221.267 459.973,217.267 461.5,213.5C 463.163,211.562 463.829,209.228 463.5,206.5C 465.04,204.162 465.706,201.495 465.5,198.5C 465.5,197.833 465.5,197.167 465.5,196.5C 466.931,195.22 467.598,193.553 467.5,191.5C 467.216,189.585 467.549,187.919 468.5,186.5C 469.461,184.735 469.795,182.735 469.5,180.5C 466.167,180.5 462.833,180.5 459.5,180.5C 458.833,180.5 458.167,180.5 457.5,180.5C 451.416,178.823 445.082,178.156 438.5,178.5C 434.353,177.675 430.019,177.175 425.5,177C 414.901,160.222 404.901,143.056 395.5,125.5C 393.257,124.526 390.924,124.192 388.5,124.5C 396.809,123.412 405.475,122.412 414.5,121.5C 422.303,121.746 429.637,122.079 436.5,122.5 Z"/></g>
<g><path style="opacity:1" fill="#514322" d="M 363.5,185.5 C 361.898,187.074 359.898,187.741 357.5,187.5C 358.99,185.72 360.99,185.054 363.5,185.5 Z"/></g>
<g><path style="opacity:1" fill="#43371c" d="M 356.5,187.5 C 354.898,189.074 352.898,189.741 350.5,189.5C 350.5,189.167 350.5,188.833 350.5,188.5C 352.379,187.659 354.379,187.325 356.5,187.5 Z"/></g>
<g><path style="opacity:1" fill="#7e6834" d="M 350.5,188.5 C 350.5,188.833 350.5,189.167 350.5,189.5C 348.621,190.341 346.621,190.675 344.5,190.5C 344.5,189.833 344.833,189.5 345.5,189.5C 347.042,188.699 348.708,188.366 350.5,188.5 Z"/></g>
<g><path style="opacity:1" fill="#69562b" d="M 342.5,191.5 C 340.152,193.097 337.486,194.097 334.5,194.5C 336.503,192.018 339.169,191.018 342.5,191.5 Z"/></g>
<g><path style="opacity:1" fill="#6e6035" d="M 467.5,191.5 C 467.598,193.553 466.931,195.22 465.5,196.5C 465.402,194.447 466.069,192.78 467.5,191.5 Z"/></g>
<g><path style="opacity:1" fill="#77612f" d="M 333.5,194.5 C 331.316,196.585 328.649,197.585 325.5,197.5C 327.503,195.018 330.169,194.018 333.5,194.5 Z"/></g>
<g><path style="opacity:1" fill="#fceb91" d="M 630.5,191.5 C 701.722,247.934 743.389,321.268 755.5,411.5C 714.627,340.098 673.46,268.765 632,197.5C 630.872,195.655 630.372,193.655 630.5,191.5 Z"/></g>
<g><path style="opacity:1" fill="#bdab6b" d="M 524.5,197.5 C 526.688,196.377 529.021,196.377 531.5,197.5C 531.833,198.167 532.167,198.833 532.5,199.5C 529.833,198.833 527.167,198.167 524.5,197.5 Z"/></g>
<g><path style="opacity:1" fill="#404040" d="M 524.5,197.5 C 527.167,198.167 529.833,198.833 532.5,199.5C 533.93,200.537 535.597,201.204 537.5,201.5C 537.973,202.906 538.973,203.573 540.5,203.5C 551.382,207.273 561.382,212.606 570.5,219.5C 572.033,221.245 574.033,222.245 576.5,222.5C 577.59,223.857 578.924,224.857 580.5,225.5C 580.973,226.906 581.973,227.573 583.5,227.5C 583.973,228.906 584.973,229.573 586.5,229.5C 587.167,229.5 587.5,229.833 587.5,230.5C 587.973,231.906 588.973,232.573 590.5,232.5C 590.973,233.906 591.973,234.573 593.5,234.5C 594.167,234.5 594.5,234.833 594.5,235.5C 594.973,236.906 595.973,237.573 597.5,237.5C 598.973,239.395 600.64,241.061 602.5,242.5C 602.973,243.906 603.973,244.573 605.5,244.5C 606.167,244.5 606.5,244.833 606.5,245.5C 606.973,246.906 607.973,247.573 609.5,247.5C 616.528,254.86 623.528,262.193 630.5,269.5C 630.833,271.833 632.167,273.167 634.5,273.5C 635.401,274.29 636.068,275.29 636.5,276.5C 636.833,278.833 638.167,280.167 640.5,280.5C 642.263,283.02 644.263,285.353 646.5,287.5C 645.916,290.285 646.916,291.952 649.5,292.5C 652.5,296.5 655.5,300.5 658.5,304.5C 658.343,305.873 658.51,307.207 659,308.5C 663.274,316.064 667.774,323.398 672.5,330.5C 674.579,334.993 676.912,339.326 679.5,343.5C 679.018,346.831 680.018,349.497 682.5,351.5C 682.5,351.833 682.5,352.167 682.5,352.5C 682.171,355.228 682.837,357.562 684.5,359.5C 685.6,360.605 686.267,361.938 686.5,363.5C 686.054,366.01 686.72,368.01 688.5,369.5C 688.833,370.167 689.167,370.833 689.5,371.5C 689.054,374.01 689.72,376.01 691.5,377.5C 691.5,378.167 691.5,378.833 691.5,379.5C 691.12,381.698 691.787,383.365 693.5,384.5C 693.5,384.833 693.5,385.167 693.5,385.5C 693.054,388.01 693.72,390.01 695.5,391.5C 696.5,398.833 697.5,406.167 698.5,413.5C 698.28,418.1 698.946,422.433 700.5,426.5C 701.055,439.827 701.389,453.16 701.5,466.5C 701.101,478.958 699.768,491.291 697.5,503.5C 696.407,507.394 695.74,511.394 695.5,515.5C 693.926,518.907 692.926,522.573 692.5,526.5C 692.5,526.833 692.5,527.167 692.5,527.5C 690.837,529.438 690.171,531.772 690.5,534.5C 688.837,536.438 688.171,538.772 688.5,541.5C 683.198,554.134 677.865,566.8 672.5,579.5C 671.094,579.973 670.427,580.973 670.5,582.5C 669.094,582.973 668.427,583.973 668.5,585.5C 667.011,587.645 666.011,589.978 665.5,592.5C 662.789,594.404 661.123,597.07 660.5,600.5C 660.5,601.167 660.167,601.5 659.5,601.5C 657.674,603.147 656.34,605.147 655.5,607.5C 654.341,608.74 653.341,610.074 652.5,611.5C 651.094,611.973 650.427,612.973 650.5,614.5C 649.341,615.74 648.341,617.074 647.5,618.5C 646.026,619.436 645.026,620.77 644.5,622.5C 642.453,624.55 640.786,626.883 639.5,629.5C 637.421,630.796 635.754,632.462 634.5,634.5C 633.094,634.973 632.427,635.973 632.5,637.5C 629.167,640.833 625.833,644.167 622.5,647.5C 620.738,648.262 619.738,649.596 619.5,651.5C 618.833,651.833 618.167,652.167 617.5,652.5C 615.167,653.5 613.5,655.167 612.5,657.5C 611.833,657.5 611.5,657.833 611.5,658.5C 609.167,658.833 607.833,660.167 607.5,662.5C 606.29,662.932 605.29,663.599 604.5,664.5C 601.573,665.757 599.239,667.757 597.5,670.5C 593.612,671.725 590.612,674.059 588.5,677.5C 585.489,678.669 582.822,680.336 580.5,682.5C 570.904,687.441 561.571,692.775 552.5,698.5C 549.996,699.584 547.663,700.917 545.5,702.5C 543.973,702.427 542.973,703.094 542.5,704.5C 540.046,705.227 537.713,706.227 535.5,707.5C 532.509,707.166 530.176,708.166 528.5,710.5C 527.833,710.5 527.167,710.5 526.5,710.5C 523.509,710.166 521.176,711.166 519.5,713.5C 516.189,713.883 513.189,714.883 510.5,716.5C 509.833,716.5 509.5,716.833 509.5,717.5C 509.167,717.5 508.833,717.5 508.5,717.5C 505.99,717.054 503.99,717.72 502.5,719.5C 502.167,719.5 501.833,719.5 501.5,719.5C 498.99,719.054 496.99,719.72 495.5,721.5C 493.05,721.298 490.717,721.631 488.5,722.5C 485.126,722.674 481.793,723.174 478.5,724C 477.944,724.383 477.611,724.883 477.5,725.5C 477.167,725.5 476.833,725.5 476.5,725.5C 465.983,726.43 455.649,727.764 445.5,729.5C 435.167,729.5 424.833,729.5 414.5,729.5C 412.5,729.5 410.5,729.5 408.5,729.5C 401.34,728.22 394.007,727.22 386.5,726.5C 385.833,726.5 385.167,726.5 384.5,726.5C 385.822,721.572 386.822,716.572 387.5,711.5C 389.163,709.562 389.829,707.228 389.5,704.5C 391.04,702.162 391.706,699.495 391.5,696.5C 393.163,694.562 393.829,692.228 393.5,689.5C 393.576,686.027 394.242,682.694 395.5,679.5C 396.612,677.401 397.279,675.067 397.5,672.5C 397.328,671.508 397.662,670.842 398.5,670.5C 400.04,668.162 400.706,665.495 400.5,662.5C 400.216,660.585 400.549,658.919 401.5,657.5C 402.612,655.401 403.279,653.067 403.5,650.5C 403.927,647.99 404.593,645.657 405.5,643.5C 407.163,641.562 407.829,639.228 407.5,636.5C 409.04,634.162 409.706,631.495 409.5,628.5C 410.038,626.883 410.371,625.216 410.5,623.5C 411.612,621.401 412.279,619.067 412.5,616.5C 412.328,615.508 412.662,614.842 413.5,614.5C 415.04,612.162 415.706,609.495 415.5,606.5C 417.163,604.562 417.829,602.228 417.5,599.5C 419.163,597.562 419.829,595.228 419.5,592.5C 419.216,590.585 419.549,588.919 420.5,587.5C 422.163,585.562 422.829,583.228 422.5,580.5C 424.04,578.162 424.706,575.495 424.5,572.5C 424.5,571.833 424.5,571.167 424.5,570.5C 425.404,569.791 425.737,568.791 425.5,567.5C 426.612,565.401 427.279,563.067 427.5,560.5C 427.328,559.508 427.662,558.842 428.5,558.5C 430.04,556.162 430.706,553.495 430.5,550.5C 432.163,548.562 432.829,546.228 432.5,543.5C 434.163,541.562 434.829,539.228 434.5,536.5C 434.216,534.585 434.549,532.919 435.5,531.5C 437.163,529.562 437.829,527.228 437.5,524.5C 439.04,522.162 439.706,519.495 439.5,516.5C 439.5,515.833 439.5,515.167 439.5,514.5C 440.404,513.791 440.737,512.791 440.5,511.5C 441.612,509.401 442.279,507.067 442.5,504.5C 442.328,503.508 442.662,502.842 443.5,502.5C 445.04,500.162 445.706,497.495 445.5,494.5C 445.216,492.585 445.549,490.919 446.5,489.5C 448.868,487.044 449.868,484.044 449.5,480.5C 449.216,478.585 449.549,476.919 450.5,475.5C 452.163,473.562 452.829,471.228 452.5,468.5C 454.04,466.162 454.706,463.495 454.5,460.5C 456.163,458.562 456.829,456.228 456.5,453.5C 456.927,450.99 457.593,448.657 458.5,446.5C 460.04,444.162 460.706,441.495 460.5,438.5C 462.163,436.562 462.829,434.228 462.5,431.5C 463.545,424.919 465.211,418.585 467.5,412.5C 469.04,410.162 469.706,407.495 469.5,404.5C 471.163,402.562 471.829,400.228 471.5,397.5C 471.927,394.99 472.593,392.657 473.5,390.5C 475.04,388.162 475.706,385.495 475.5,382.5C 475.216,380.585 475.549,378.919 476.5,377.5C 478.472,374.916 479.472,371.916 479.5,368.5C 479.216,366.585 479.549,364.919 480.5,363.5C 482.163,361.562 482.829,359.228 482.5,356.5C 484.04,354.162 484.706,351.495 484.5,348.5C 486.163,346.562 486.829,344.228 486.5,341.5C 486.927,338.99 487.593,336.657 488.5,334.5C 490.04,332.162 490.706,329.495 490.5,326.5C 490.5,325.833 490.5,325.167 490.5,324.5C 491.931,323.22 492.598,321.553 492.5,319.5C 492.973,315.267 493.973,311.267 495.5,307.5C 497.163,305.562 497.829,303.228 497.5,300.5C 499.04,298.162 499.706,295.495 499.5,292.5C 501.163,290.562 501.829,288.228 501.5,285.5C 502.924,283.485 503.59,281.152 503.5,278.5C 503.216,276.585 503.549,274.919 504.5,273.5C 506.223,271.22 506.889,268.553 506.5,265.5C 508.163,263.562 508.829,261.228 508.5,258.5C 510.163,256.562 510.829,254.228 510.5,251.5C 512.163,249.562 512.829,247.228 512.5,244.5C 514.04,242.162 514.706,239.495 514.5,236.5C 516.163,234.562 516.829,232.228 516.5,229.5C 517.924,227.485 518.59,225.152 518.5,222.5C 518.925,217.923 519.925,213.59 521.5,209.5C 523.163,207.562 523.829,205.228 523.5,202.5C 523.216,200.585 523.549,198.919 524.5,197.5 Z"/></g>
<g><path style="opacity:1" fill="#fec454" d="M 214.5,198.5 C 224.152,214.464 233.819,230.464 243.5,246.5C 242.026,247.436 241.026,248.77 240.5,250.5C 239.833,250.5 239.5,250.833 239.5,251.5C 237.167,251.833 235.833,253.167 235.5,255.5C 234.29,255.932 233.29,256.599 232.5,257.5C 230.952,257.821 230.285,258.821 230.5,260.5C 229.833,260.833 229.167,261.167 228.5,261.5C 227.094,261.973 226.427,262.973 226.5,264.5C 225.5,265.167 224.5,265.833 223.5,266.5C 222.094,266.973 221.427,267.973 221.5,269.5C 220.833,269.5 220.5,269.833 220.5,270.5C 218.952,270.821 218.285,271.821 218.5,273.5C 217.833,273.833 217.167,274.167 216.5,274.5C 215.833,274.833 215.167,275.167 214.5,275.5C 205.092,259.69 195.926,243.69 187,227.5C 186.23,226.402 185.397,226.402 184.5,227.5C 189.264,221.232 194.598,215.398 200.5,210C 205.04,205.954 209.707,202.121 214.5,198.5 Z"/></g>
<g><path style="opacity:1" fill="#7f6832" d="M 322.5,198.5 C 320.066,200.874 317.066,202.208 313.5,202.5C 315.835,199.835 318.835,198.502 322.5,198.5 Z"/></g>
<g><path style="opacity:1" fill="#91855c" d="M 537.5,201.5 C 539.027,201.427 540.027,202.094 540.5,203.5C 538.973,203.573 537.973,202.906 537.5,201.5 Z"/></g>
<g><path style="opacity:1" fill="#a38e4d" d="M 465.5,198.5 C 465.706,201.495 465.04,204.162 463.5,206.5C 463.294,203.505 463.96,200.838 465.5,198.5 Z"/></g>
<g><path style="opacity:1" fill="#4e3f1e" d="M 305.5,206.5 C 305.027,207.906 304.027,208.573 302.5,208.5C 302.973,207.094 303.973,206.427 305.5,206.5 Z"/></g>
<g><path style="opacity:1" fill="#817856" d="M 523.5,202.5 C 523.829,205.228 523.163,207.562 521.5,209.5C 521.41,206.848 522.076,204.515 523.5,202.5 Z"/></g>
<g><path style="opacity:1" fill="#9c8749" d="M 463.5,206.5 C 463.829,209.228 463.163,211.562 461.5,213.5C 461.171,210.772 461.837,208.438 463.5,206.5 Z"/></g>
<g><path style="opacity:1" fill="#645026" d="M 299.5,208.5 C 300.167,208.5 300.833,208.5 301.5,208.5C 296.684,212.293 291.35,215.293 285.5,217.5C 285.5,217.167 285.5,216.833 285.5,216.5C 289.833,213.331 294.5,210.664 299.5,208.5 Z"/></g>
<g><path style="opacity:1" fill="#947636" d="M 285.5,216.5 C 285.5,216.833 285.5,217.167 285.5,217.5C 281.167,220.167 276.833,222.833 272.5,225.5C 272.5,224.833 272.5,224.167 272.5,223.5C 276.674,220.912 281.007,218.579 285.5,216.5 Z"/></g>
<g><path style="opacity:1" fill="#9d9163" d="M 570.5,219.5 C 573.089,219.461 575.089,220.461 576.5,222.5C 574.033,222.245 572.033,221.245 570.5,219.5 Z"/></g>
<g><path style="opacity:1" fill="#998e61" d="M 580.5,225.5 C 582.027,225.427 583.027,226.094 583.5,227.5C 581.973,227.573 580.973,226.906 580.5,225.5 Z"/></g>
<g><path style="opacity:1" fill="#736b51" d="M 518.5,222.5 C 518.59,225.152 517.924,227.485 516.5,229.5C 516.171,226.772 516.837,224.438 518.5,222.5 Z"/></g>
<g><path style="opacity:1" fill="#7b6938" d="M 458.5,225.5 C 458.598,227.553 457.931,229.22 456.5,230.5C 456.402,228.447 457.069,226.78 458.5,225.5 Z"/></g>
<g><path style="opacity:1" fill="#9f9364" d="M 583.5,227.5 C 585.027,227.427 586.027,228.094 586.5,229.5C 584.973,229.573 583.973,228.906 583.5,227.5 Z"/></g>
<g><path style="opacity:1" fill="#958b60" d="M 587.5,230.5 C 589.027,230.427 590.027,231.094 590.5,232.5C 588.973,232.573 587.973,231.906 587.5,230.5 Z"/></g>
<g><path style="opacity:1" fill="#7f642c" d="M 263.5,231.5 C 262.421,233.543 260.754,234.876 258.5,235.5C 259.539,233.469 261.205,232.136 263.5,231.5 Z"/></g>
<g><path style="opacity:1" fill="#ab9e68" d="M 590.5,232.5 C 592.027,232.427 593.027,233.094 593.5,234.5C 591.973,234.573 590.973,233.906 590.5,232.5 Z"/></g>
<g><path style="opacity:1" fill="#766d52" d="M 516.5,229.5 C 516.829,232.228 516.163,234.562 514.5,236.5C 514.171,233.772 514.837,231.438 516.5,229.5 Z"/></g>
<g><path style="opacity:1" fill="#ab9f69" d="M 594.5,235.5 C 595.167,235.5 595.833,235.5 596.5,235.5C 596.833,236.167 597.167,236.833 597.5,237.5C 595.973,237.573 594.973,236.906 594.5,235.5 Z"/></g>
<g><path style="opacity:1" fill="#b09651" d="M 456.5,232.5 C 456.5,233.167 456.5,233.833 456.5,234.5C 456.405,236.786 455.738,238.786 454.5,240.5C 454.294,237.505 454.96,234.838 456.5,232.5 Z"/></g>
<g><path style="opacity:1" fill="#fdbf4d" d="M 214.5,275.5 C 214.5,276.167 214.5,276.833 214.5,277.5C 213.833,277.5 213.5,277.833 213.5,278.5C 212.094,278.973 211.427,279.973 211.5,281.5C 211.5,282.167 211.167,282.5 210.5,282.5C 208.952,282.821 208.285,283.821 208.5,285.5C 207.167,286.833 205.833,288.167 204.5,289.5C 203.094,289.973 202.427,290.973 202.5,292.5C 201.833,293.833 201.167,295.167 200.5,296.5C 198.952,296.821 198.285,297.821 198.5,299.5C 197.833,299.5 197.5,299.833 197.5,300.5C 195.952,300.821 195.285,301.821 195.5,303.5C 194.833,304.5 194.167,305.5 193.5,306.5C 192.094,306.973 191.427,307.973 191.5,309.5C 190.094,309.973 189.427,310.973 189.5,312.5C 188.5,312.833 187.833,313.5 187.5,314.5C 177.626,297.098 167.459,279.764 157,262.5C 156.617,263.056 156.117,263.389 155.5,263.5C 156.128,260.91 157.295,258.577 159,256.5C 166.679,245.996 175.179,236.329 184.5,227.5C 185.397,226.402 186.23,226.402 187,227.5C 195.926,243.69 205.092,259.69 214.5,275.5 Z"/></g>
<g><path style="opacity:1" fill="#a27f38" d="M 251.5,240.5 C 250.833,241.833 249.833,242.833 248.5,243.5C 248.5,241.5 249.5,240.5 251.5,240.5 Z"/></g>
<g><path style="opacity:1" fill="#756c50" d="M 514.5,236.5 C 514.706,239.495 514.04,242.162 512.5,244.5C 512.294,241.505 512.96,238.838 514.5,236.5 Z"/></g>
<g><path style="opacity:1" fill="#867e5b" d="M 602.5,242.5 C 604.027,242.427 605.027,243.094 605.5,244.5C 603.973,244.573 602.973,243.906 602.5,242.5 Z"/></g>
<g><path style="opacity:1" fill="#ac944e" d="M 454.5,240.5 C 454.829,243.228 454.163,245.562 452.5,247.5C 452.171,244.772 452.837,242.438 454.5,240.5 Z"/></g>
<g><path style="opacity:1" fill="#aa9e69" d="M 606.5,245.5 C 608.027,245.427 609.027,246.094 609.5,247.5C 607.973,247.573 606.973,246.906 606.5,245.5 Z"/></g>
<g><path style="opacity:1" fill="#87682e" d="M 243.5,246.5 C 243.833,246.5 244.167,246.5 244.5,246.5C 243.598,248.341 242.264,249.674 240.5,250.5C 241.026,248.77 242.026,247.436 243.5,246.5 Z"/></g>
<g><path style="opacity:1" fill="#fdd872" d="M 456.5,234.5 C 457.496,234.414 458.329,234.748 459,235.5C 471.759,257.771 484.259,279.438 496.5,300.5C 495.781,302.764 495.448,305.097 495.5,307.5C 493.973,311.267 492.973,315.267 492.5,319.5C 491.069,320.78 490.402,322.447 490.5,324.5C 490.5,325.167 490.5,325.833 490.5,326.5C 488.96,328.838 488.294,331.505 488.5,334.5C 487.593,336.657 486.927,338.99 486.5,341.5C 484.837,343.438 484.171,345.772 484.5,348.5C 483.833,349.5 483.167,350.5 482.5,351.5C 469.737,328.967 456.737,306.634 443.5,284.5C 443.5,283.5 443.5,282.5 443.5,281.5C 443.973,277.267 444.973,273.267 446.5,269.5C 448.163,267.562 448.829,265.228 448.5,262.5C 450.04,260.162 450.706,257.495 450.5,254.5C 450.5,253.833 450.5,253.167 450.5,252.5C 451.931,251.22 452.598,249.553 452.5,247.5C 454.163,245.562 454.829,243.228 454.5,240.5C 455.738,238.786 456.405,236.786 456.5,234.5 Z"/></g>
<g><path style="opacity:1" fill="#7b7152" d="M 512.5,244.5 C 512.829,247.228 512.163,249.562 510.5,251.5C 510.171,248.772 510.837,246.438 512.5,244.5 Z"/></g>
<g><path style="opacity:1" fill="#6b5b30" d="M 452.5,247.5 C 452.598,249.553 451.931,251.22 450.5,252.5C 450.402,250.447 451.069,248.78 452.5,247.5 Z"/></g>
<g><path style="opacity:1" fill="#88692d" d="M 239.5,251.5 C 238.5,253.167 237.167,254.5 235.5,255.5C 235.833,253.167 237.167,251.833 239.5,251.5 Z"/></g>
<g><path style="opacity:1" fill="#807554" d="M 509.5,251.5 C 509.833,251.5 510.167,251.5 510.5,251.5C 510.829,254.228 510.163,256.562 508.5,258.5C 508.448,256.097 508.781,253.764 509.5,251.5 Z"/></g>
<g><path style="opacity:1" fill="#9c7933" d="M 232.5,257.5 C 232.068,258.71 231.401,259.71 230.5,260.5C 230.285,258.821 230.952,257.821 232.5,257.5 Z"/></g>
<g><path style="opacity:1" fill="#a18948" d="M 450.5,254.5 C 450.706,257.495 450.04,260.162 448.5,262.5C 448.294,259.505 448.96,256.838 450.5,254.5 Z"/></g>
<g><path style="opacity:1" fill="#fdbb47" d="M 187.5,314.5 C 187.5,315.167 187.5,315.833 187.5,316.5C 186.029,318.216 185.029,320.216 184.5,322.5C 182.952,322.821 182.285,323.821 182.5,325.5C 182.672,326.492 182.338,327.158 181.5,327.5C 180.094,327.973 179.427,328.973 179.5,330.5C 177.691,335.263 175.691,339.93 173.5,344.5C 171.755,346.033 170.755,348.033 170.5,350.5C 170.598,352.553 169.931,354.22 168.5,355.5C 168.167,355.5 167.833,355.5 167.5,355.5C 157.277,336.726 146.777,318.059 136,299.5C 135.329,298.748 134.496,298.414 133.5,298.5C 139.316,285.725 146.649,274.058 155.5,263.5C 156.117,263.389 156.617,263.056 157,262.5C 167.459,279.764 177.626,297.098 187.5,314.5 Z"/></g>
<g><path style="opacity:1" fill="#806229" d="M 228.5,261.5 C 228.573,263.027 227.906,264.027 226.5,264.5C 226.427,262.973 227.094,261.973 228.5,261.5 Z"/></g>
<g><path style="opacity:1" fill="#837854" d="M 508.5,258.5 C 508.829,261.228 508.163,263.562 506.5,265.5C 506.41,262.848 507.076,260.515 508.5,258.5 Z"/></g>
<g><path style="opacity:1" fill="#998244" d="M 448.5,262.5 C 448.829,265.228 448.163,267.562 446.5,269.5C 446.171,266.772 446.837,264.438 448.5,262.5 Z"/></g>
<g><path style="opacity:1" fill="#906e2e" d="M 223.5,266.5 C 223.573,268.027 222.906,269.027 221.5,269.5C 221.427,267.973 222.094,266.973 223.5,266.5 Z"/></g>
<g><path style="opacity:1" fill="#766d50" d="M 506.5,265.5 C 506.889,268.553 506.223,271.22 504.5,273.5C 504.802,270.627 505.469,267.961 506.5,265.5 Z"/></g>
<g><path style="opacity:1" fill="#736d53" d="M 630.5,269.5 C 632.341,270.402 633.674,271.736 634.5,273.5C 632.167,273.167 630.833,271.833 630.5,269.5 Z"/></g>
<g><path style="opacity:1" fill="#705523" d="M 220.5,270.5 C 220.573,272.027 219.906,273.027 218.5,273.5C 218.285,271.821 218.952,270.821 220.5,270.5 Z"/></g>
<g><path style="opacity:1" fill="#8a6a2b" d="M 216.5,274.5 C 216.573,276.027 215.906,277.027 214.5,277.5C 214.5,276.833 214.5,276.167 214.5,275.5C 215.167,275.167 215.833,274.833 216.5,274.5 Z"/></g>
<g><path style="opacity:1" fill="#757055" d="M 636.5,276.5 C 638.341,277.402 639.674,278.736 640.5,280.5C 638.167,280.167 636.833,278.833 636.5,276.5 Z"/></g>
<g><path style="opacity:1" fill="#785b26" d="M 213.5,278.5 C 213.573,280.027 212.906,281.027 211.5,281.5C 211.427,279.973 212.094,278.973 213.5,278.5 Z"/></g>
<g><path style="opacity:1" fill="#6b5121" d="M 210.5,282.5 C 210.573,284.027 209.906,285.027 208.5,285.5C 208.285,283.821 208.952,282.821 210.5,282.5 Z"/></g>
<g><path style="opacity:1" fill="#756c4f" d="M 503.5,278.5 C 503.59,281.152 502.924,283.485 501.5,285.5C 501.171,282.772 501.837,280.438 503.5,278.5 Z"/></g>
<g><path style="opacity:1" fill="#776533" d="M 443.5,281.5 C 443.5,282.5 443.5,283.5 443.5,284.5C 442.833,285.167 442.167,285.833 441.5,286.5C 441.402,284.447 442.069,282.78 443.5,281.5 Z"/></g>
<g><path style="opacity:1" fill="#fed56d" d="M 443.5,284.5 C 456.737,306.634 469.737,328.967 482.5,351.5C 482.5,353.167 482.5,354.833 482.5,356.5C 480.837,358.438 480.171,360.772 480.5,363.5C 479.549,364.919 479.216,366.585 479.5,368.5C 477.528,371.084 476.528,374.084 476.5,377.5C 475.549,378.919 475.216,380.585 475.5,382.5C 473.96,384.838 473.294,387.505 473.5,390.5C 472.593,392.657 471.927,394.99 471.5,397.5C 469.837,399.438 469.171,401.772 469.5,404.5C 469.167,404.5 468.833,404.5 468.5,404.5C 458.137,384.113 446.971,364.113 435,344.5C 432.859,340.556 431.025,336.556 429.5,332.5C 429.328,331.508 429.662,330.842 430.5,330.5C 431.117,330.389 431.617,330.056 432,329.5C 432.719,325.855 433.219,322.188 433.5,318.5C 435.04,316.162 435.706,313.495 435.5,310.5C 435.5,309.833 435.5,309.167 435.5,308.5C 436.931,307.22 437.598,305.553 437.5,303.5C 439.163,301.562 439.829,299.228 439.5,296.5C 441.04,294.162 441.706,291.495 441.5,288.5C 441.5,287.833 441.5,287.167 441.5,286.5C 442.167,285.833 442.833,285.167 443.5,284.5 Z"/></g>
<g><path style="opacity:1" fill="#7a7457" d="M 646.5,287.5 C 648.25,288.659 649.25,290.326 649.5,292.5C 646.916,291.952 645.916,290.285 646.5,287.5 Z"/></g>
<g><path style="opacity:1" fill="#a67d32" d="M 204.5,289.5 C 204.715,291.179 204.048,292.179 202.5,292.5C 202.427,290.973 203.094,289.973 204.5,289.5 Z"/></g>
<g><path style="opacity:1" fill="#786e50" d="M 501.5,285.5 C 501.829,288.228 501.163,290.562 499.5,292.5C 499.171,289.772 499.837,287.438 501.5,285.5 Z"/></g>
<g><path style="opacity:1" fill="#ad914b" d="M 441.5,288.5 C 441.706,291.495 441.04,294.162 439.5,296.5C 439.294,293.505 439.96,290.838 441.5,288.5 Z"/></g>
<g><path style="opacity:1" fill="#6b5020" d="M 200.5,296.5 C 200.068,297.71 199.401,298.71 198.5,299.5C 198.285,297.821 198.952,296.821 200.5,296.5 Z"/></g>
<g><path style="opacity:1" fill="#fdb741" d="M 133.5,298.5 C 134.496,298.414 135.329,298.748 136,299.5C 146.777,318.059 157.277,336.726 167.5,355.5C 166.659,357.379 166.325,359.379 166.5,361.5C 165.833,363.833 165.167,366.167 164.5,368.5C 163.069,369.78 162.402,371.447 162.5,373.5C 162.5,374.167 162.5,374.833 162.5,375.5C 161.076,377.515 160.41,379.848 160.5,382.5C 159.469,384.961 158.802,387.627 158.5,390.5C 156.837,392.438 156.171,394.772 156.5,397.5C 155.097,400.909 154.43,404.575 154.5,408.5C 154.599,411.237 154.265,413.904 153.5,416.5C 153.167,416.5 152.833,416.5 152.5,416.5C 152.284,412.941 152.618,409.441 153.5,406C 141.35,384.51 129.183,363.01 117,341.5C 116.23,340.402 115.397,340.402 114.5,341.5C 119.498,326.51 125.831,312.177 133.5,298.5 Z"/></g>
<g><path style="opacity:1" fill="#776d50" d="M 499.5,292.5 C 499.706,295.495 499.04,298.162 497.5,300.5C 497.294,297.505 497.96,294.838 499.5,292.5 Z"/></g>
<g><path style="opacity:1" fill="#6c5120" d="M 197.5,300.5 C 197.573,302.027 196.906,303.027 195.5,303.5C 195.285,301.821 195.952,300.821 197.5,300.5 Z"/></g>
<g><path style="opacity:1" fill="#aa8e49" d="M 439.5,296.5 C 439.829,299.228 439.163,301.562 437.5,303.5C 437.171,300.772 437.837,298.438 439.5,296.5 Z"/></g>
<g><path style="opacity:1" fill="#7c7050" d="M 496.5,300.5 C 496.833,300.5 497.167,300.5 497.5,300.5C 497.829,303.228 497.163,305.562 495.5,307.5C 495.448,305.097 495.781,302.764 496.5,300.5 Z"/></g>
<g><path style="opacity:1" fill="#67562c" d="M 437.5,303.5 C 437.598,305.553 436.931,307.22 435.5,308.5C 435.402,306.447 436.069,304.78 437.5,303.5 Z"/></g>
<g><path style="opacity:1" fill="#7d5d24" d="M 193.5,306.5 C 193.573,308.027 192.906,309.027 191.5,309.5C 191.427,307.973 192.094,306.973 193.5,306.5 Z"/></g>
<g><path style="opacity:1" fill="#876527" d="M 191.5,309.5 C 191.573,311.027 190.906,312.027 189.5,312.5C 189.427,310.973 190.094,309.973 191.5,309.5 Z"/></g>
<g><path style="opacity:1" fill="#8f6b29" d="M 189.5,312.5 C 189.34,314.153 188.674,315.486 187.5,316.5C 187.5,315.833 187.5,315.167 187.5,314.5C 187.833,313.5 188.5,312.833 189.5,312.5 Z"/></g>
<g><path style="opacity:1" fill="#9e8343" d="M 435.5,310.5 C 435.706,313.495 435.04,316.162 433.5,318.5C 433.294,315.505 433.96,312.838 435.5,310.5 Z"/></g>
<g><path style="opacity:1" fill="#8c845e" d="M 658.5,304.5 C 662.892,310.934 667.059,317.601 671,324.5C 672.128,326.345 672.628,328.345 672.5,330.5C 667.774,323.398 663.274,316.064 659,308.5C 658.51,307.207 658.343,305.873 658.5,304.5 Z"/></g>
<g><path style="opacity:1" fill="#938256" d="M 492.5,319.5 C 492.598,321.553 491.931,323.22 490.5,324.5C 490.402,322.447 491.069,320.78 492.5,319.5 Z"/></g>
<g><path style="opacity:1" fill="#5e451a" d="M 184.5,322.5 C 184.573,324.027 183.906,325.027 182.5,325.5C 182.285,323.821 182.952,322.821 184.5,322.5 Z"/></g>
<g><path style="opacity:1" fill="#cfac56" d="M 433.5,318.5 C 433.219,322.188 432.719,325.855 432,329.5C 431.617,330.056 431.117,330.389 430.5,330.5C 430.719,326.2 431.719,322.2 433.5,318.5 Z"/></g>
<g><path style="opacity:1" fill="#866325" d="M 181.5,327.5 C 181.715,329.179 181.048,330.179 179.5,330.5C 179.427,328.973 180.094,327.973 181.5,327.5 Z"/></g>
<g><path style="opacity:1" fill="#6f664c" d="M 490.5,326.5 C 490.706,329.495 490.04,332.162 488.5,334.5C 488.294,331.505 488.96,328.838 490.5,326.5 Z"/></g>
<g><path style="opacity:1" fill="#fdd066" d="M 429.5,332.5 C 431.025,336.556 432.859,340.556 435,344.5C 446.971,364.113 458.137,384.113 468.5,404.5C 467.908,407.127 467.575,409.794 467.5,412.5C 465.211,418.585 463.545,424.919 462.5,431.5C 460.837,433.438 460.171,435.772 460.5,438.5C 458.96,440.838 458.294,443.505 458.5,446.5C 457.593,448.657 456.927,450.99 456.5,453.5C 454.837,455.438 454.171,457.772 454.5,460.5C 453.833,461.5 453.167,462.5 452.5,463.5C 452.66,461.801 452.494,460.134 452,458.5C 439.14,436.77 426.307,415.103 413.5,393.5C 413.973,389.267 414.973,385.267 416.5,381.5C 418.68,378.619 419.68,375.286 419.5,371.5C 419.216,369.585 419.549,367.919 420.5,366.5C 422.163,364.562 422.829,362.228 422.5,359.5C 424.163,357.562 424.829,355.228 424.5,352.5C 426.04,350.162 426.706,347.495 426.5,344.5C 426.5,343.833 426.5,343.167 426.5,342.5C 427.931,341.22 428.598,339.553 428.5,337.5C 428.216,335.585 428.549,333.919 429.5,332.5 Z"/></g>
<g><path style="opacity:1" fill="#735f2f" d="M 428.5,337.5 C 428.598,339.553 427.931,341.22 426.5,342.5C 426.402,340.447 427.069,338.78 428.5,337.5 Z"/></g>
<g><path style="opacity:1" fill="#866225" d="M 173.5,344.5 C 173.539,347.089 172.539,349.089 170.5,350.5C 170.755,348.033 171.755,346.033 173.5,344.5 Z"/></g>
<g><path style="opacity:1" fill="#7a6e4e" d="M 486.5,341.5 C 486.829,344.228 486.163,346.562 484.5,348.5C 484.171,345.772 484.837,343.438 486.5,341.5 Z"/></g>
<g><path style="opacity:1" fill="#bcae71" d="M 679.5,343.5 C 681.982,345.503 682.982,348.169 682.5,351.5C 680.018,349.497 679.018,346.831 679.5,343.5 Z"/></g>
<g><path style="opacity:1" fill="#aa8c45" d="M 426.5,344.5 C 426.706,347.495 426.04,350.162 424.5,352.5C 424.294,349.505 424.96,346.838 426.5,344.5 Z"/></g>
<g><path style="opacity:1" fill="#796d4e" d="M 484.5,348.5 C 484.706,351.495 484.04,354.162 482.5,356.5C 482.5,354.833 482.5,353.167 482.5,351.5C 483.167,350.5 483.833,349.5 484.5,348.5 Z"/></g>
<g><path style="opacity:1" fill="#b98731" d="M 167.5,355.5 C 167.833,355.5 168.167,355.5 168.5,355.5C 168.405,357.786 167.738,359.786 166.5,361.5C 166.325,359.379 166.659,357.379 167.5,355.5 Z"/></g>
<g><path style="opacity:1" fill="#767055" d="M 682.5,352.5 C 684.163,354.438 684.829,356.772 684.5,359.5C 682.837,357.562 682.171,355.228 682.5,352.5 Z"/></g>
<g><path style="opacity:1" fill="#fcb33a" d="M 152.5,416.5 C 151.705,420.785 151.372,425.119 151.5,429.5C 151.5,445.167 151.5,460.833 151.5,476.5C 135.978,449.141 120.145,421.808 104,394.5C 103.098,392.073 102.264,389.74 101.5,387.5C 104.593,371.793 108.926,356.459 114.5,341.5C 115.397,340.402 116.23,340.402 117,341.5C 129.183,363.01 141.35,384.51 153.5,406C 152.618,409.441 152.284,412.941 152.5,416.5 Z"/></g>
<g><path style="opacity:1" fill="#a68843" d="M 424.5,352.5 C 424.829,355.228 424.163,357.562 422.5,359.5C 422.171,356.772 422.837,354.438 424.5,352.5 Z"/></g>
<g><path style="opacity:1" fill="#7f714f" d="M 482.5,356.5 C 482.829,359.228 482.163,361.562 480.5,363.5C 480.171,360.772 480.837,358.438 482.5,356.5 Z"/></g>
<g><path style="opacity:1" fill="#997e3d" d="M 422.5,359.5 C 422.829,362.228 422.163,364.562 420.5,366.5C 420.171,363.772 420.837,361.438 422.5,359.5 Z"/></g>
<g><path style="opacity:1" fill="#8a825d" d="M 686.5,363.5 C 688.28,364.99 688.946,366.99 688.5,369.5C 686.72,368.01 686.054,366.01 686.5,363.5 Z"/></g>
<g><path style="opacity:1" fill="#856122" d="M 164.5,368.5 C 164.598,370.553 163.931,372.22 162.5,373.5C 162.402,371.447 163.069,369.78 164.5,368.5 Z"/></g>
<g><path style="opacity:1" fill="#75694d" d="M 479.5,368.5 C 479.472,371.916 478.472,374.916 476.5,377.5C 476.528,374.084 477.528,371.084 479.5,368.5 Z"/></g>
<g><path style="opacity:1" fill="#ab9f6a" d="M 689.5,371.5 C 691.074,373.102 691.741,375.102 691.5,377.5C 689.72,376.01 689.054,374.01 689.5,371.5 Z"/></g>
<g><path style="opacity:1" fill="#ba9849" d="M 419.5,371.5 C 419.68,375.286 418.68,378.619 416.5,381.5C 416.899,377.884 417.899,374.55 419.5,371.5 Z"/></g>
<g><path style="opacity:1" fill="#402e13" d="M 162.5,375.5 C 162.829,378.228 162.163,380.562 160.5,382.5C 160.41,379.848 161.076,377.515 162.5,375.5 Z"/></g>
<g><path style="opacity:1" fill="#a79b68" d="M 691.5,379.5 C 693.213,380.635 693.88,382.302 693.5,384.5C 691.787,383.365 691.12,381.698 691.5,379.5 Z"/></g>
<g><path style="opacity:1" fill="#feb034" d="M 101.5,387.5 C 102.264,389.74 103.098,392.073 104,394.5C 120.145,421.808 135.978,449.141 151.5,476.5C 151.5,476.833 151.5,477.167 151.5,477.5C 151.198,481.79 151.864,485.79 153.5,489.5C 153.5,491.167 153.5,492.833 153.5,494.5C 153.335,497.518 153.502,500.518 154,503.5C 154.383,504.056 154.883,504.389 155.5,504.5C 156.961,510.474 158.295,516.474 159.5,522.5C 159.054,525.01 159.72,527.01 161.5,528.5C 161.5,528.833 161.5,529.167 161.5,529.5C 161.054,532.01 161.72,534.01 163.5,535.5C 163.5,535.833 163.5,536.167 163.5,536.5C 163.054,539.01 163.72,541.01 165.5,542.5C 166.11,543.391 166.443,544.391 166.5,545.5C 166.054,548.01 166.72,550.01 168.5,551.5C 168.427,553.027 169.094,554.027 170.5,554.5C 170.5,554.833 170.5,555.167 170.5,555.5C 170.415,558.649 171.415,561.316 173.5,563.5C 175.196,566.85 176.863,570.183 178.5,573.5C 181.102,581.372 184.769,588.705 189.5,595.5C 191.388,599.606 193.554,603.606 196,607.5C 196.671,608.252 197.504,608.586 198.5,608.5C 198.427,610.027 199.094,611.027 200.5,611.5C 202.167,613.5 203.833,615.5 205.5,617.5C 205.427,619.027 206.094,620.027 207.5,620.5C 207.427,622.027 208.094,623.027 209.5,623.5C 210.488,624.795 211.488,626.128 212.5,627.5C 212.5,627.833 212.5,628.167 212.5,628.5C 212.833,630.833 214.167,632.167 216.5,632.5C 217.5,632.833 218.167,633.5 218.5,634.5C 219.167,635.833 220.167,636.833 221.5,637.5C 221.427,639.027 222.094,640.027 223.5,640.5C 224.167,640.5 224.5,640.833 224.5,641.5C 225.5,643.167 226.833,644.5 228.5,645.5C 229.167,645.5 229.5,645.833 229.5,646.5C 230.5,648.167 231.833,649.5 233.5,650.5C 234.167,650.5 234.5,650.833 234.5,651.5C 234.973,652.906 235.973,653.573 237.5,653.5C 237.833,654.167 238.167,654.833 238.5,655.5C 238.973,656.906 239.973,657.573 241.5,657.5C 242.967,660.034 244.967,662.034 247.5,663.5C 247.973,664.906 248.973,665.573 250.5,665.5C 252.792,668.305 255.459,670.638 258.5,672.5C 258.973,673.906 259.973,674.573 261.5,674.5C 262.167,674.5 262.5,674.833 262.5,675.5C 262.821,677.048 263.821,677.715 265.5,677.5C 265.833,678.167 266.167,678.833 266.5,679.5C 267.899,680.89 269.566,681.89 271.5,682.5C 297.452,729.061 323.952,775.394 351,821.5C 352.741,824.309 353.908,827.309 354.5,830.5C 349.767,850.77 344.434,870.77 338.5,890.5C 326.002,867.499 313.002,844.833 299.5,822.5C 304.582,803.59 309.249,784.59 313.5,765.5C 289.814,756.822 267.48,745.822 246.5,732.5C 247.525,732.103 247.692,731.437 247,730.5C 197.333,644.5 147.667,558.5 98,472.5C 97.2303,471.402 96.397,471.402 95.5,472.5C 93.5721,444.507 95.5721,416.173 101.5,387.5 Z"/></g>
<g><path style="opacity:1" fill="#71664b" d="M 475.5,382.5 C 475.706,385.495 475.04,388.162 473.5,390.5C 473.294,387.505 473.96,384.838 475.5,382.5 Z"/></g>
<g><path style="opacity:1" fill="#bbac6f" d="M 693.5,385.5 C 695.074,387.102 695.741,389.102 695.5,391.5C 693.72,390.01 693.054,388.01 693.5,385.5 Z"/></g>
<g><path style="opacity:1" fill="#896222" d="M 158.5,390.5 C 158.279,393.067 157.612,395.401 156.5,397.5C 156.171,394.772 156.837,392.438 158.5,390.5 Z"/></g>
<g><path style="opacity:1" fill="#705b2b" d="M 413.5,393.5 C 413.598,395.553 412.931,397.22 411.5,398.5C 411.402,396.447 412.069,394.78 413.5,393.5 Z"/></g>
<g><path style="opacity:1" fill="#73521c" d="M 156.5,397.5 C 156.57,401.425 155.903,405.091 154.5,408.5C 154.43,404.575 155.097,400.909 156.5,397.5 Z"/></g>
<g><path style="opacity:1" fill="#7c6e4d" d="M 471.5,397.5 C 471.829,400.228 471.163,402.562 469.5,404.5C 469.171,401.772 469.837,399.438 471.5,397.5 Z"/></g>
<g><path style="opacity:1" fill="#a7873f" d="M 411.5,400.5 C 411.706,403.495 411.04,406.162 409.5,408.5C 409.294,405.505 409.96,402.838 411.5,400.5 Z"/></g>
<g><path style="opacity:1" fill="#fecc60" d="M 413.5,393.5 C 426.307,415.103 439.14,436.77 452,458.5C 452.494,460.134 452.66,461.801 452.5,463.5C 452.5,465.167 452.5,466.833 452.5,468.5C 451.388,470.599 450.721,472.933 450.5,475.5C 449.549,476.919 449.216,478.585 449.5,480.5C 447.528,483.084 446.528,486.084 446.5,489.5C 445.549,490.919 445.216,492.585 445.5,494.5C 443.96,496.838 443.294,499.505 443.5,502.5C 442.662,502.842 442.328,503.508 442.5,504.5C 440.837,506.438 440.171,508.772 440.5,511.5C 440.737,512.791 440.404,513.791 439.5,514.5C 439.245,511.984 438.411,509.65 437,507.5C 425.059,486.606 412.892,465.939 400.5,445.5C 400.5,444.5 400.5,443.5 400.5,442.5C 401.924,440.485 402.59,438.152 402.5,435.5C 402.216,433.585 402.549,431.919 403.5,430.5C 405.04,428.162 405.706,425.495 405.5,422.5C 405.5,421.833 405.5,421.167 405.5,420.5C 406.931,419.22 407.598,417.553 407.5,415.5C 409.163,413.562 409.829,411.228 409.5,408.5C 411.04,406.162 411.706,403.495 411.5,400.5C 411.5,399.833 411.5,399.167 411.5,398.5C 412.931,397.22 413.598,395.553 413.5,393.5 Z"/></g>
<g><path style="opacity:1" fill="#7b6d4c" d="M 468.5,404.5 C 468.833,404.5 469.167,404.5 469.5,404.5C 469.706,407.495 469.04,410.162 467.5,412.5C 467.575,409.794 467.908,407.127 468.5,404.5 Z"/></g>
<g><path style="opacity:1" fill="#a3833d" d="M 409.5,408.5 C 409.829,411.228 409.163,413.562 407.5,415.5C 407.171,412.772 407.837,410.438 409.5,408.5 Z"/></g>
<g><path style="opacity:1" fill="#614d24" d="M 407.5,415.5 C 407.598,417.553 406.931,419.22 405.5,420.5C 405.402,418.447 406.069,416.78 407.5,415.5 Z"/></g>
<g><path style="opacity:1" fill="#a27326" d="M 152.5,416.5 C 152.833,416.5 153.167,416.5 153.5,416.5C 153.116,421.01 152.449,425.343 151.5,429.5C 151.372,425.119 151.705,420.785 152.5,416.5 Z"/></g>
<g><path style="opacity:1" fill="#716b53" d="M 698.5,413.5 C 700.054,417.567 700.72,421.9 700.5,426.5C 698.946,422.433 698.28,418.1 698.5,413.5 Z"/></g>
<g><path style="opacity:1" fill="#977938" d="M 405.5,422.5 C 405.706,425.495 405.04,428.162 403.5,430.5C 403.294,427.505 403.96,424.838 405.5,422.5 Z"/></g>
<g><path style="opacity:1" fill="#fde586" d="M 753.5,510.5 C 750.91,529.917 745.91,548.584 738.5,566.5C 739.141,563.779 739.641,561.112 740,558.5C 726.97,535.997 713.803,513.664 700.5,491.5C 701.552,483.209 702.219,474.876 702.5,466.5C 702.737,453.141 702.404,439.808 701.5,426.5C 701.336,423.813 701.503,421.146 702,418.5C 718.667,447.167 735.333,475.833 752,504.5C 753.128,506.345 753.628,508.345 753.5,510.5 Z"/></g>
<g><path style="opacity:1" fill="#74674a" d="M 462.5,431.5 C 462.829,434.228 462.163,436.562 460.5,438.5C 460.171,435.772 460.837,433.438 462.5,431.5 Z"/></g>
<g><path style="opacity:1" fill="#b59042" d="M 402.5,435.5 C 402.59,438.152 401.924,440.485 400.5,442.5C 400.171,439.772 400.837,437.438 402.5,435.5 Z"/></g>
<g><path style="opacity:1" fill="#74674a" d="M 460.5,438.5 C 460.706,441.495 460.04,444.162 458.5,446.5C 458.294,443.505 458.96,440.838 460.5,438.5 Z"/></g>
<g><path style="opacity:1" fill="#fdc85a" d="M 400.5,445.5 C 412.892,465.939 425.059,486.606 437,507.5C 438.411,509.65 439.245,511.984 439.5,514.5C 439.5,515.167 439.5,515.833 439.5,516.5C 437.96,518.838 437.294,521.505 437.5,524.5C 436.388,526.599 435.721,528.933 435.5,531.5C 434.549,532.919 434.216,534.585 434.5,536.5C 432.837,538.438 432.171,540.772 432.5,543.5C 430.837,545.438 430.171,547.772 430.5,550.5C 428.96,552.838 428.294,555.505 428.5,558.5C 427.662,558.842 427.328,559.508 427.5,560.5C 425.837,562.438 425.171,564.772 425.5,567.5C 425.737,568.791 425.404,569.791 424.5,570.5C 424.789,567.351 424.289,564.351 423,561.5C 410.606,540.612 398.439,519.612 386.5,498.5C 387.699,493.562 388.699,488.562 389.5,483.5C 389.448,481.097 389.781,478.764 390.5,476.5C 391.931,475.22 392.598,473.553 392.5,471.5C 394.163,469.562 394.829,467.228 394.5,464.5C 394.216,462.585 394.549,460.919 395.5,459.5C 397.243,456.505 398.243,453.171 398.5,449.5C 399.674,448.486 400.34,447.153 400.5,445.5 Z"/></g>
<g><path style="opacity:1" fill="#ae8a3f" d="M 400.5,442.5 C 400.5,443.5 400.5,444.5 400.5,445.5C 400.34,447.153 399.674,448.486 398.5,449.5C 398.171,446.772 398.837,444.438 400.5,442.5 Z"/></g>
<g><path style="opacity:1" fill="#91865e" d="M 700.5,426.5 C 700.833,426.5 701.167,426.5 701.5,426.5C 702.404,439.808 702.737,453.141 702.5,466.5C 702.167,466.5 701.833,466.5 701.5,466.5C 701.389,453.16 701.055,439.827 700.5,426.5 Z"/></g>
<g><path style="opacity:1" fill="#8b6e31" d="M 398.5,449.5 C 398.243,453.171 397.243,456.505 395.5,459.5C 395.757,455.829 396.757,452.495 398.5,449.5 Z"/></g>
<g><path style="opacity:1" fill="#7e6e4b" d="M 456.5,453.5 C 456.829,456.228 456.163,458.562 454.5,460.5C 454.171,457.772 454.837,455.438 456.5,453.5 Z"/></g>
<g><path style="opacity:1" fill="#7c6d4b" d="M 454.5,460.5 C 454.706,463.495 454.04,466.162 452.5,468.5C 452.5,466.833 452.5,465.167 452.5,463.5C 453.167,462.5 453.833,461.5 454.5,460.5 Z"/></g>
<g><path style="opacity:1" fill="#9f7d38" d="M 394.5,464.5 C 394.829,467.228 394.163,469.562 392.5,471.5C 392.171,468.772 392.837,466.438 394.5,464.5 Z"/></g>
<g><path style="opacity:1" fill="#feac2e" d="M 246.5,732.5 C 168.525,680.899 120.191,609.232 101.5,517.5C 97.6168,502.57 95.6168,487.57 95.5,472.5C 96.397,471.402 97.2303,471.402 98,472.5C 147.667,558.5 197.333,644.5 247,730.5C 247.692,731.437 247.525,732.103 246.5,732.5 Z"/></g>
<g><path style="opacity:1" fill="#6e6248" d="M 452.5,468.5 C 452.829,471.228 452.163,473.562 450.5,475.5C 450.721,472.933 451.388,470.599 452.5,468.5 Z"/></g>
<g><path style="opacity:1" fill="#5e4920" d="M 392.5,471.5 C 392.598,473.553 391.931,475.22 390.5,476.5C 390.402,474.447 391.069,472.78 392.5,471.5 Z"/></g>
<g><path style="opacity:1" fill="#745119" d="M 151.5,477.5 C 153.136,481.21 153.802,485.21 153.5,489.5C 151.864,485.79 151.198,481.79 151.5,477.5 Z"/></g>
<g><path style="opacity:1" fill="#776849" d="M 449.5,480.5 C 449.868,484.044 448.868,487.044 446.5,489.5C 446.528,486.084 447.528,483.084 449.5,480.5 Z"/></g>
<g><path style="opacity:1" fill="#baa96b" d="M 701.5,466.5 C 701.833,466.5 702.167,466.5 702.5,466.5C 702.219,474.876 701.552,483.209 700.5,491.5C 699.92,495.142 699.42,498.809 699,502.5C 698.617,503.056 698.117,503.389 697.5,503.5C 699.768,491.291 701.101,478.958 701.5,466.5 Z"/></g>
<g><path style="opacity:1" fill="#fde180" d="M 700.5,491.5 C 713.803,513.664 726.97,535.997 740,558.5C 739.641,561.112 739.141,563.779 738.5,566.5C 735.218,578.728 730.552,590.395 724.5,601.5C 723.504,601.414 722.671,601.748 722,602.5C 711.586,584.003 700.919,565.669 690,547.5C 688.872,545.655 688.372,543.655 688.5,541.5C 688.171,538.772 688.837,536.438 690.5,534.5C 691.924,532.485 692.59,530.152 692.5,527.5C 692.5,527.167 692.5,526.833 692.5,526.5C 695.193,523.461 696.193,519.794 695.5,515.5C 695.74,511.394 696.407,507.394 697.5,503.5C 698.117,503.389 698.617,503.056 699,502.5C 699.42,498.809 699.92,495.142 700.5,491.5 Z"/></g>
<g><path style="opacity:1" fill="#ca9e45" d="M 389.5,483.5 C 388.699,488.562 387.699,493.562 386.5,498.5C 386.167,498.5 385.833,498.5 385.5,498.5C 386.053,493.194 387.386,488.194 389.5,483.5 Z"/></g>
<g><path style="opacity:1" fill="#fdc454" d="M 385.5,498.5 C 385.833,498.5 386.167,498.5 386.5,498.5C 398.439,519.612 410.606,540.612 423,561.5C 424.289,564.351 424.789,567.351 424.5,570.5C 424.5,571.167 424.5,571.833 424.5,572.5C 422.96,574.838 422.294,577.505 422.5,580.5C 421.388,582.599 420.721,584.933 420.5,587.5C 419.549,588.919 419.216,590.585 419.5,592.5C 417.837,594.438 417.171,596.772 417.5,599.5C 415.837,601.438 415.171,603.772 415.5,606.5C 413.96,608.838 413.294,611.505 413.5,614.5C 412.662,614.842 412.328,615.508 412.5,616.5C 412.167,616.5 411.833,616.5 411.5,616.5C 398.495,594.647 385.661,572.647 373,550.5C 372.066,551.858 371.232,553.192 370.5,554.5C 370.216,552.585 370.549,550.919 371.5,549.5C 373.68,546.619 374.68,543.286 374.5,539.5C 374.448,537.097 374.781,534.764 375.5,532.5C 376.931,531.22 377.598,529.553 377.5,527.5C 379.163,525.562 379.829,523.228 379.5,520.5C 379.216,518.585 379.549,516.919 380.5,515.5C 382.243,512.505 383.243,509.171 383.5,505.5C 385.163,503.562 385.829,501.228 385.5,498.5 Z"/></g>
<g><path style="opacity:1" fill="#b88027" d="M 153.5,494.5 C 154.785,497.589 155.451,500.922 155.5,504.5C 154.883,504.389 154.383,504.056 154,503.5C 153.502,500.518 153.335,497.518 153.5,494.5 Z"/></g>
<g><path style="opacity:1" fill="#746648" d="M 445.5,494.5 C 445.706,497.495 445.04,500.162 443.5,502.5C 443.294,499.505 443.96,496.838 445.5,494.5 Z"/></g>
<g><path style="opacity:1" fill="#ab853a" d="M 385.5,498.5 C 385.829,501.228 385.163,503.562 383.5,505.5C 383.171,502.772 383.837,500.438 385.5,498.5 Z"/></g>
<g><path style="opacity:1" fill="#ba9953" d="M 442.5,504.5 C 442.279,507.067 441.612,509.401 440.5,511.5C 440.171,508.772 440.837,506.438 442.5,504.5 Z"/></g>
<g><path style="opacity:1" fill="#88692d" d="M 383.5,505.5 C 383.243,509.171 382.243,512.505 380.5,515.5C 380.757,511.829 381.757,508.495 383.5,505.5 Z"/></g>
<g><path style="opacity:1" fill="#7f6d49" d="M 439.5,516.5 C 439.706,519.495 439.04,522.162 437.5,524.5C 437.294,521.505 437.96,518.838 439.5,516.5 Z"/></g>
<g><path style="opacity:1" fill="#d1ba70" d="M 695.5,515.5 C 696.193,519.794 695.193,523.461 692.5,526.5C 692.926,522.573 693.926,518.907 695.5,515.5 Z"/></g>
<g><path style="opacity:1" fill="#6c4a17" d="M 159.5,522.5 C 161.074,524.102 161.741,526.102 161.5,528.5C 159.72,527.01 159.054,525.01 159.5,522.5 Z"/></g>
<g><path style="opacity:1" fill="#9d7933" d="M 379.5,520.5 C 379.829,523.228 379.163,525.562 377.5,527.5C 377.171,524.772 377.837,522.438 379.5,520.5 Z"/></g>
<g><path style="opacity:1" fill="#706346" d="M 437.5,524.5 C 437.829,527.228 437.163,529.562 435.5,531.5C 435.721,528.933 436.388,526.599 437.5,524.5 Z"/></g>
<g><path style="opacity:1" fill="#5b461d" d="M 377.5,527.5 C 377.598,529.553 376.931,531.22 375.5,532.5C 375.402,530.447 376.069,528.78 377.5,527.5 Z"/></g>
<g><path style="opacity:1" fill="#baa768" d="M 692.5,527.5 C 692.59,530.152 691.924,532.485 690.5,534.5C 690.171,531.772 690.837,529.438 692.5,527.5 Z"/></g>
<g><path style="opacity:1" fill="#745018" d="M 161.5,529.5 C 163.074,531.102 163.741,533.102 163.5,535.5C 161.72,534.01 161.054,532.01 161.5,529.5 Z"/></g>
<g><path style="opacity:1" fill="#90631d" d="M 163.5,536.5 C 165.074,538.102 165.741,540.102 165.5,542.5C 163.72,541.01 163.054,539.01 163.5,536.5 Z"/></g>
<g><path style="opacity:1" fill="#706246" d="M 434.5,536.5 C 434.829,539.228 434.163,541.562 432.5,543.5C 432.171,540.772 432.837,538.438 434.5,536.5 Z"/></g>
<g><path style="opacity:1" fill="#b18738" d="M 374.5,539.5 C 374.68,543.286 373.68,546.619 371.5,549.5C 371.899,545.884 372.899,542.55 374.5,539.5 Z"/></g>
<g><path style="opacity:1" fill="#776747" d="M 432.5,543.5 C 432.829,546.228 432.163,548.562 430.5,550.5C 430.171,547.772 430.837,545.438 432.5,543.5 Z"/></g>
<g><path style="opacity:1" fill="#a57222" d="M 166.5,545.5 C 167.401,546.29 168.068,547.29 168.5,548.5C 168.5,549.5 168.5,550.5 168.5,551.5C 166.72,550.01 166.054,548.01 166.5,545.5 Z"/></g>
<g><path style="opacity:1" fill="#3e2b0f" d="M 168.5,548.5 C 170.074,550.102 170.741,552.102 170.5,554.5C 169.094,554.027 168.427,553.027 168.5,551.5C 168.5,550.5 168.5,549.5 168.5,548.5 Z"/></g>
<g><path style="opacity:1" fill="#fddc79" d="M 688.5,541.5 C 688.372,543.655 688.872,545.655 690,547.5C 700.919,565.669 711.586,584.003 722,602.5C 722.671,601.748 723.504,601.414 724.5,601.5C 716.323,617.646 706.99,632.979 696.5,647.5C 686.149,629.46 675.816,611.46 665.5,593.5C 665.5,593.167 665.5,592.833 665.5,592.5C 666.011,589.978 667.011,587.645 668.5,585.5C 669.906,585.027 670.573,584.027 670.5,582.5C 671.906,582.027 672.573,581.027 672.5,579.5C 677.865,566.8 683.198,554.134 688.5,541.5 Z"/></g>
<g><path style="opacity:1" fill="#776746" d="M 430.5,550.5 C 430.706,553.495 430.04,556.162 428.5,558.5C 428.294,555.505 428.96,552.838 430.5,550.5 Z"/></g>
<g><path style="opacity:1" fill="#9d6c20" d="M 170.5,555.5 C 172.585,557.684 173.585,560.351 173.5,563.5C 171.415,561.316 170.415,558.649 170.5,555.5 Z"/></g>
<g><path style="opacity:1" fill="#a98134" d="M 370.5,554.5 C 370.829,557.228 370.163,559.562 368.5,561.5C 368.171,558.772 368.837,556.438 370.5,554.5 Z"/></g>
<g><path style="opacity:1" fill="#bc974f" d="M 427.5,560.5 C 427.279,563.067 426.612,565.401 425.5,567.5C 425.171,564.772 425.837,562.438 427.5,560.5 Z"/></g>
<g><path style="opacity:1" fill="#846428" d="M 368.5,561.5 C 368.243,565.171 367.243,568.505 365.5,571.5C 365.757,567.829 366.757,564.495 368.5,561.5 Z"/></g>
<g><path style="opacity:1" fill="#fdc04d" d="M 411.5,616.5 C 410.781,618.764 410.448,621.097 410.5,623.5C 410.371,625.216 410.038,626.883 409.5,628.5C 407.96,630.838 407.294,633.505 407.5,636.5C 406.388,638.599 405.721,640.933 405.5,643.5C 404.593,645.657 403.927,647.99 403.5,650.5C 401.837,652.438 401.171,654.772 401.5,657.5C 400.549,658.919 400.216,660.585 400.5,662.5C 398.96,664.838 398.294,667.505 398.5,670.5C 397.662,670.842 397.328,671.508 397.5,672.5C 396.833,673.167 396.167,673.833 395.5,674.5C 382.931,652.363 370.097,630.363 357,608.5C 356.722,609.416 356.222,610.082 355.5,610.5C 355.216,608.585 355.549,606.919 356.5,605.5C 358.68,602.619 359.68,599.286 359.5,595.5C 359.448,593.097 359.781,590.764 360.5,588.5C 361.931,587.22 362.598,585.553 362.5,583.5C 364.163,581.562 364.829,579.228 364.5,576.5C 364.216,574.585 364.549,572.919 365.5,571.5C 367.243,568.505 368.243,565.171 368.5,561.5C 370.163,559.562 370.829,557.228 370.5,554.5C 371.232,553.192 372.066,551.858 373,550.5C 385.661,572.647 398.495,594.647 411.5,616.5 Z"/></g>
<g><path style="opacity:1" fill="#806d47" d="M 424.5,572.5 C 424.706,575.495 424.04,578.162 422.5,580.5C 422.294,577.505 422.96,574.838 424.5,572.5 Z"/></g>
<g><path style="opacity:1" fill="#82591a" d="M 178.5,573.5 C 183.226,580.905 187.559,588.572 191.5,596.5C 190.833,596.167 190.167,595.833 189.5,595.5C 184.769,588.705 181.102,581.372 178.5,573.5 Z"/></g>
<g><path style="opacity:1" fill="#ad9a5f" d="M 672.5,579.5 C 672.573,581.027 671.906,582.027 670.5,582.5C 670.427,580.973 671.094,579.973 672.5,579.5 Z"/></g>
<g><path style="opacity:1" fill="#99732d" d="M 364.5,576.5 C 364.829,579.228 364.163,581.562 362.5,583.5C 362.171,580.772 362.837,578.438 364.5,576.5 Z"/></g>
<g><path style="opacity:1" fill="#726245" d="M 422.5,580.5 C 422.829,583.228 422.163,585.562 420.5,587.5C 420.721,584.933 421.388,582.599 422.5,580.5 Z"/></g>
<g><path style="opacity:1" fill="#8c7f56" d="M 670.5,582.5 C 670.573,584.027 669.906,585.027 668.5,585.5C 668.427,583.973 669.094,582.973 670.5,582.5 Z"/></g>
<g><path style="opacity:1" fill="#58421a" d="M 362.5,583.5 C 362.598,585.553 361.931,587.22 360.5,588.5C 360.402,586.447 361.069,584.78 362.5,583.5 Z"/></g>
<g><path style="opacity:1" fill="#716145" d="M 419.5,592.5 C 419.829,595.228 419.163,597.562 417.5,599.5C 417.171,596.772 417.837,594.438 419.5,592.5 Z"/></g>
<g><path style="opacity:1" fill="#ceb368" d="M 665.5,592.5 C 665.5,592.833 665.5,593.167 665.5,593.5C 664.557,596.429 662.89,598.763 660.5,600.5C 661.123,597.07 662.789,594.404 665.5,592.5 Z"/></g>
<g><path style="opacity:1" fill="#ae8233" d="M 359.5,595.5 C 359.68,599.286 358.68,602.619 356.5,605.5C 356.899,601.884 357.899,598.55 359.5,595.5 Z"/></g>
<g><path style="opacity:1" fill="#9d6c1f" d="M 189.5,595.5 C 190.167,595.833 190.833,596.167 191.5,596.5C 194.335,600.164 196.668,604.164 198.5,608.5C 197.504,608.586 196.671,608.252 196,607.5C 193.554,603.606 191.388,599.606 189.5,595.5 Z"/></g>
<g><path style="opacity:1" fill="#796745" d="M 417.5,599.5 C 417.829,602.228 417.163,604.562 415.5,606.5C 415.171,603.772 415.837,601.438 417.5,599.5 Z"/></g>
<g><path style="opacity:1" fill="#ac975d" d="M 659.5,601.5 C 659.13,604.267 657.796,606.267 655.5,607.5C 656.34,605.147 657.674,603.147 659.5,601.5 Z"/></g>
<g><path style="opacity:1" fill="#fdd872" d="M 665.5,593.5 C 675.816,611.46 686.149,629.46 696.5,647.5C 689.274,658.726 680.941,669.059 671.5,678.5C 661.989,661.466 651.989,644.799 641.5,628.5C 643.025,626.784 644.025,624.784 644.5,622.5C 646.446,621.965 647.446,620.632 647.5,618.5C 648.341,617.074 649.341,615.74 650.5,614.5C 651.906,614.027 652.573,613.027 652.5,611.5C 653.341,610.074 654.341,608.74 655.5,607.5C 657.796,606.267 659.13,604.267 659.5,601.5C 660.167,601.5 660.5,601.167 660.5,600.5C 662.89,598.763 664.557,596.429 665.5,593.5 Z"/></g>
<g><path style="opacity:1" fill="#fdbc47" d="M 395.5,674.5 C 395.5,676.167 395.5,677.833 395.5,679.5C 394.242,682.694 393.576,686.027 393.5,689.5C 392.076,691.515 391.41,693.848 391.5,696.5C 389.96,698.838 389.294,701.505 389.5,704.5C 387.837,706.438 387.171,708.772 387.5,711.5C 386.043,714.778 384.71,718.111 383.5,721.5C 383.201,717.895 382.035,714.561 380,711.5C 368.224,691.608 356.724,671.608 345.5,651.5C 346.219,649.236 346.552,646.903 346.5,644.5C 347.038,642.883 347.371,641.216 347.5,639.5C 348.262,635.329 349.262,631.329 350.5,627.5C 352.243,624.505 353.243,621.171 353.5,617.5C 355.163,615.562 355.829,613.228 355.5,610.5C 356.222,610.082 356.722,609.416 357,608.5C 370.097,630.363 382.931,652.363 395.5,674.5 Z"/></g>
<g><path style="opacity:1" fill="#96671e" d="M 198.5,608.5 C 199.906,608.973 200.573,609.973 200.5,611.5C 199.094,611.027 198.427,610.027 198.5,608.5 Z"/></g>
<g><path style="opacity:1" fill="#786645" d="M 415.5,606.5 C 415.706,609.495 415.04,612.162 413.5,614.5C 413.294,611.505 413.96,608.838 415.5,606.5 Z"/></g>
<g><path style="opacity:1" fill="#887953" d="M 652.5,611.5 C 652.573,613.027 651.906,614.027 650.5,614.5C 650.427,612.973 651.094,611.973 652.5,611.5 Z"/></g>
<g><path style="opacity:1" fill="#a77c2f" d="M 355.5,610.5 C 355.829,613.228 355.163,615.562 353.5,617.5C 353.171,614.772 353.837,612.438 355.5,610.5 Z"/></g>
<g><path style="opacity:1" fill="#614213" d="M 205.5,617.5 C 206.906,617.973 207.573,618.973 207.5,620.5C 206.094,620.027 205.427,619.027 205.5,617.5 Z"/></g>
<g><path style="opacity:1" fill="#bf964b" d="M 411.5,616.5 C 411.833,616.5 412.167,616.5 412.5,616.5C 412.279,619.067 411.612,621.401 410.5,623.5C 410.448,621.097 410.781,618.764 411.5,616.5 Z"/></g>
<g><path style="opacity:1" fill="#948355" d="M 647.5,618.5 C 647.446,620.632 646.446,621.965 644.5,622.5C 645.026,620.77 646.026,619.436 647.5,618.5 Z"/></g>
<g><path style="opacity:1" fill="#7c5519" d="M 207.5,620.5 C 208.906,620.973 209.573,621.973 209.5,623.5C 208.094,623.027 207.427,622.027 207.5,620.5 Z"/></g>
<g><path style="opacity:1" fill="#805f24" d="M 353.5,617.5 C 353.243,621.171 352.243,624.505 350.5,627.5C 350.757,623.829 351.757,620.495 353.5,617.5 Z"/></g>
<g><path style="opacity:1" fill="#503711" d="M 212.5,628.5 C 212.5,628.167 212.5,627.833 212.5,627.5C 214.5,627.5 215.5,628.5 215.5,630.5C 214.5,629.833 213.5,629.167 212.5,628.5 Z"/></g>
<g><path style="opacity:1" fill="#a7925a" d="M 644.5,622.5 C 644.025,624.784 643.025,626.784 641.5,628.5C 640.833,628.833 640.167,629.167 639.5,629.5C 640.786,626.883 642.453,624.55 644.5,622.5 Z"/></g>
<g><path style="opacity:1" fill="#fdd46d" d="M 641.5,628.5 C 651.989,644.799 661.989,661.466 671.5,678.5C 662.663,688.47 652.996,697.803 642.5,706.5C 642.628,704.345 642.128,702.345 641,700.5C 632.236,685.97 623.736,671.303 615.5,656.5C 616.806,655.533 617.473,654.199 617.5,652.5C 618.167,652.167 618.833,651.833 619.5,651.5C 621.262,650.738 622.262,649.404 622.5,647.5C 625.833,644.167 629.167,640.833 632.5,637.5C 633.906,637.027 634.573,636.027 634.5,634.5C 635.754,632.462 637.421,630.796 639.5,629.5C 640.167,629.167 640.833,628.833 641.5,628.5 Z"/></g>
<g><path style="opacity:1" fill="#bb8126" d="M 212.5,628.5 C 213.5,629.167 214.5,629.833 215.5,630.5C 216.338,630.842 216.672,631.508 216.5,632.5C 214.167,632.167 212.833,630.833 212.5,628.5 Z"/></g>
<g><path style="opacity:1" fill="#473110" d="M 218.5,634.5 C 220.5,634.5 221.5,635.5 221.5,637.5C 220.167,636.833 219.167,635.833 218.5,634.5 Z"/></g>
<g><path style="opacity:1" fill="#826d45" d="M 409.5,628.5 C 409.706,631.495 409.04,634.162 407.5,636.5C 407.294,633.505 407.96,630.838 409.5,628.5 Z"/></g>
<g><path style="opacity:1" fill="#918053" d="M 634.5,634.5 C 634.573,636.027 633.906,637.027 632.5,637.5C 632.427,635.973 633.094,634.973 634.5,634.5 Z"/></g>
<g><path style="opacity:1" fill="#895e1c" d="M 221.5,637.5 C 222.906,637.973 223.573,638.973 223.5,640.5C 222.094,640.027 221.427,639.027 221.5,637.5 Z"/></g>
<g><path style="opacity:1" fill="#756443" d="M 407.5,636.5 C 407.829,639.228 407.163,641.562 405.5,643.5C 405.721,640.933 406.388,638.599 407.5,636.5 Z"/></g>
<g><path style="opacity:1" fill="#614314" d="M 224.5,641.5 C 226.833,641.833 228.167,643.167 228.5,645.5C 226.833,644.5 225.5,643.167 224.5,641.5 Z"/></g>
<g><path style="opacity:1" fill="#543d17" d="M 347.5,639.5 C 347.371,641.216 347.038,642.883 346.5,644.5C 346.167,644.5 345.833,644.5 345.5,644.5C 345.402,642.447 346.069,640.78 347.5,639.5 Z"/></g>
<g><path style="opacity:1" fill="#513812" d="M 229.5,646.5 C 231.833,646.833 233.167,648.167 233.5,650.5C 231.833,649.5 230.5,648.167 229.5,646.5 Z"/></g>
<g><path style="opacity:1" fill="#9d8855" d="M 622.5,647.5 C 622.262,649.404 621.262,650.738 619.5,651.5C 619.738,649.596 620.738,648.262 622.5,647.5 Z"/></g>
<g><path style="opacity:1" fill="#b38330" d="M 345.5,644.5 C 345.833,644.5 346.167,644.5 346.5,644.5C 346.552,646.903 346.219,649.236 345.5,651.5C 345.167,651.5 344.833,651.5 344.5,651.5C 344.448,649.097 344.781,646.764 345.5,644.5 Z"/></g>
<g><path style="opacity:1" fill="#503710" d="M 234.5,651.5 C 236.027,651.427 237.027,652.094 237.5,653.5C 235.973,653.573 234.973,652.906 234.5,651.5 Z"/></g>
<g><path style="opacity:1" fill="#b68f48" d="M 403.5,650.5 C 403.279,653.067 402.612,655.401 401.5,657.5C 401.171,654.772 401.837,652.438 403.5,650.5 Z"/></g>
<g><path style="opacity:1" fill="#a78f57" d="M 617.5,652.5 C 617.473,654.199 616.806,655.533 615.5,656.5C 614.609,657.11 613.609,657.443 612.5,657.5C 613.5,655.167 615.167,653.5 617.5,652.5 Z"/></g>
<g><path style="opacity:1" fill="#543a12" d="M 238.5,655.5 C 240.027,655.427 241.027,656.094 241.5,657.5C 239.973,657.573 238.973,656.906 238.5,655.5 Z"/></g>
<g><path style="opacity:1" fill="#fdd066" d="M 615.5,656.5 C 623.736,671.303 632.236,685.97 641,700.5C 642.128,702.345 642.628,704.345 642.5,706.5C 632.242,716.296 620.908,724.629 608.5,731.5C 599.945,715.394 591.112,699.394 582,683.5C 581.184,684.823 580.017,685.489 578.5,685.5C 579.167,684.5 579.833,683.5 580.5,682.5C 582.822,680.336 585.489,678.669 588.5,677.5C 591.792,675.542 594.792,673.209 597.5,670.5C 600.427,669.243 602.761,667.243 604.5,664.5C 605.29,663.599 606.29,662.932 607.5,662.5C 609.167,661.5 610.5,660.167 611.5,658.5C 611.5,657.833 611.833,657.5 612.5,657.5C 613.609,657.443 614.609,657.11 615.5,656.5 Z"/></g>
<g><path style="opacity:1" fill="#ab7c2d" d="M 344.5,651.5 C 344.68,655.286 343.68,658.619 341.5,661.5C 341.899,657.884 342.899,654.55 344.5,651.5 Z"/></g>
<g><path style="opacity:1" fill="#917e51" d="M 611.5,658.5 C 610.5,660.167 609.167,661.5 607.5,662.5C 607.833,660.167 609.167,658.833 611.5,658.5 Z"/></g>
<g><path style="opacity:1" fill="#feb842" d="M 344.5,651.5 C 344.833,651.5 345.167,651.5 345.5,651.5C 356.724,671.608 368.224,691.608 380,711.5C 382.035,714.561 383.201,717.895 383.5,721.5C 383.216,723.415 383.549,725.081 384.5,726.5C 385.167,726.5 385.833,726.5 386.5,726.5C 387.5,727.167 388.5,727.833 389.5,728.5C 400.615,747.224 411.615,766.057 422.5,785C 420.527,785.495 418.527,785.662 416.5,785.5C 410.242,785.614 404.075,785.614 398,785.5C 388.25,783.846 378.417,782.512 368.5,781.5C 368.918,780.778 369.584,780.278 370.5,780C 356.354,756.876 342.854,733.376 330,709.5C 329.617,710.056 329.117,710.389 328.5,710.5C 328.263,709.209 328.596,708.209 329.5,707.5C 331.163,705.562 331.829,703.228 331.5,700.5C 332.038,698.883 332.371,697.216 332.5,695.5C 332.927,692.99 333.593,690.657 334.5,688.5C 336.04,686.162 336.706,683.495 336.5,680.5C 336.5,679.833 336.5,679.167 336.5,678.5C 337.931,677.22 338.598,675.553 338.5,673.5C 340.163,671.562 340.829,669.228 340.5,666.5C 340.216,664.585 340.549,662.919 341.5,661.5C 343.68,658.619 344.68,655.286 344.5,651.5 Z"/></g>
<g><path style="opacity:1" fill="#624414" d="M 247.5,663.5 C 249.027,663.427 250.027,664.094 250.5,665.5C 248.973,665.573 247.973,664.906 247.5,663.5 Z"/></g>
<g><path style="opacity:1" fill="#a18a54" d="M 604.5,664.5 C 602.761,667.243 600.427,669.243 597.5,670.5C 599.239,667.757 601.573,665.757 604.5,664.5 Z"/></g>
<g><path style="opacity:1" fill="#796643" d="M 400.5,662.5 C 400.706,665.495 400.04,668.162 398.5,670.5C 398.294,667.505 398.96,664.838 400.5,662.5 Z"/></g>
<g><path style="opacity:1" fill="#a5772b" d="M 340.5,666.5 C 340.829,669.228 340.163,671.562 338.5,673.5C 338.171,670.772 338.837,668.438 340.5,666.5 Z"/></g>
<g><path style="opacity:1" fill="#6f4d18" d="M 258.5,672.5 C 260.027,672.427 261.027,673.094 261.5,674.5C 259.973,674.573 258.973,673.906 258.5,672.5 Z"/></g>
<g><path style="opacity:1" fill="#a58c53" d="M 597.5,670.5 C 594.792,673.209 591.792,675.542 588.5,677.5C 590.612,674.059 593.612,671.725 597.5,670.5 Z"/></g>
<g><path style="opacity:1" fill="#c09546" d="M 397.5,672.5 C 397.279,675.067 396.612,677.401 395.5,679.5C 395.5,677.833 395.5,676.167 395.5,674.5C 396.167,673.833 396.833,673.167 397.5,672.5 Z"/></g>
<g><path style="opacity:1" fill="#91651f" d="M 262.5,675.5 C 264.027,675.427 265.027,676.094 265.5,677.5C 263.821,677.715 262.821,677.048 262.5,675.5 Z"/></g>
<g><path style="opacity:1" fill="#604518" d="M 338.5,673.5 C 338.598,675.553 337.931,677.22 336.5,678.5C 336.402,676.447 337.069,674.78 338.5,673.5 Z"/></g>
<g><path style="opacity:1" fill="#5d4115" d="M 265.5,677.5 C 267.027,677.427 268.027,678.094 268.5,679.5C 267.833,679.5 267.167,679.5 266.5,679.5C 266.167,678.833 265.833,678.167 265.5,677.5 Z"/></g>
<g><path style="opacity:1" fill="#a37223" d="M 266.5,679.5 C 267.167,679.5 267.833,679.5 268.5,679.5C 270.23,680.026 271.564,681.026 272.5,682.5C 272.167,682.5 271.833,682.5 271.5,682.5C 269.566,681.89 267.899,680.89 266.5,679.5 Z"/></g>
<g><path style="opacity:1" fill="#fdb33a" d="M 271.5,682.5 C 271.833,682.5 272.167,682.5 272.5,682.5C 272.973,683.906 273.973,684.573 275.5,684.5C 278.989,686.32 282.323,688.32 285.5,690.5C 285.973,691.906 286.973,692.573 288.5,692.5C 288.973,693.906 289.973,694.573 291.5,694.5C 291.973,695.906 292.973,696.573 294.5,696.5C 294.833,696.5 295.167,696.5 295.5,696.5C 296.486,698.408 298.152,699.408 300.5,699.5C 301.911,701.539 303.911,702.539 306.5,702.5C 309.406,702.957 312.072,703.957 314.5,705.5C 314.973,706.906 315.973,707.573 317.5,707.5C 319.416,709.977 322.083,710.977 325.5,710.5C 326.5,710.5 327.5,710.5 328.5,710.5C 329.117,710.389 329.617,710.056 330,709.5C 342.854,733.376 356.354,756.876 370.5,780C 369.584,780.278 368.918,780.778 368.5,781.5C 363.971,797.961 359.304,814.294 354.5,830.5C 353.908,827.309 352.741,824.309 351,821.5C 323.952,775.394 297.452,729.061 271.5,682.5 Z"/></g>
<g><path style="opacity:1" fill="#78541a" d="M 272.5,682.5 C 274.027,682.427 275.027,683.094 275.5,684.5C 273.973,684.573 272.973,683.906 272.5,682.5 Z"/></g>
<g><path style="opacity:1" fill="#996e26" d="M 336.5,680.5 C 336.706,683.495 336.04,686.162 334.5,688.5C 334.294,685.505 334.96,682.838 336.5,680.5 Z"/></g>
<g><path style="opacity:1" fill="#fccb60" d="M 608.5,731.5 C 598.832,739.341 588.166,745.674 576.5,750.5C 576.306,748.088 574.973,747.088 572.5,747.5C 572.752,744.68 572.252,742.014 571,739.5C 564.167,727.833 557.333,716.167 550.5,704.5C 547.956,704.051 545.29,704.051 542.5,704.5C 542.973,703.094 543.973,702.427 545.5,702.5C 549.165,702.498 552.165,701.165 554.5,698.5C 562.517,694.138 570.517,689.805 578.5,685.5C 580.017,685.489 581.184,684.823 582,683.5C 591.112,699.394 599.945,715.394 608.5,731.5 Z"/></g>
<g><path style="opacity:1" fill="#684917" d="M 285.5,690.5 C 287.027,690.427 288.027,691.094 288.5,692.5C 286.973,692.573 285.973,691.906 285.5,690.5 Z"/></g>
<g><path style="opacity:1" fill="#825b1d" d="M 288.5,692.5 C 290.179,692.285 291.179,692.952 291.5,694.5C 289.973,694.573 288.973,693.906 288.5,692.5 Z"/></g>
<g><path style="opacity:1" fill="#7c6c4a" d="M 580.5,682.5 C 579.833,683.5 579.167,684.5 578.5,685.5C 570.517,689.805 562.517,694.138 554.5,698.5C 553.833,698.5 553.167,698.5 552.5,698.5C 561.571,692.775 570.904,687.441 580.5,682.5 Z"/></g>
<g><path style="opacity:1" fill="#a17125" d="M 291.5,694.5 C 293.179,694.285 294.179,694.952 294.5,696.5C 292.973,696.573 291.973,695.906 291.5,694.5 Z"/></g>
<g><path style="opacity:1" fill="#6d5d42" d="M 393.5,689.5 C 393.829,692.228 393.163,694.562 391.5,696.5C 391.41,693.848 392.076,691.515 393.5,689.5 Z"/></g>
<g><path style="opacity:1" fill="#986b23" d="M 295.5,696.5 C 297.848,696.592 299.514,697.592 300.5,699.5C 298.152,699.408 296.486,698.408 295.5,696.5 Z"/></g>
<g><path style="opacity:1" fill="#533b15" d="M 332.5,695.5 C 332.371,697.216 332.038,698.883 331.5,700.5C 331.167,700.5 330.833,700.5 330.5,700.5C 330.402,698.447 331.069,696.78 332.5,695.5 Z"/></g>
<g><path style="opacity:1" fill="#aa7827" d="M 300.5,699.5 C 303.089,699.461 305.089,700.461 306.5,702.5C 303.911,702.539 301.911,701.539 300.5,699.5 Z"/></g>
<g><path style="opacity:1" fill="#b49451" d="M 552.5,698.5 C 553.167,698.5 553.833,698.5 554.5,698.5C 552.165,701.165 549.165,702.498 545.5,702.5C 547.663,700.917 549.996,699.584 552.5,698.5 Z"/></g>
<g><path style="opacity:1" fill="#726042" d="M 391.5,696.5 C 391.706,699.495 391.04,702.162 389.5,704.5C 389.294,701.505 389.96,698.838 391.5,696.5 Z"/></g>
<g><path style="opacity:1" fill="#fdc85a" d="M 576.5,750.5 C 563.745,757.314 550.411,762.981 536.5,767.5C 537.347,766.034 538.68,765.2 540.5,765C 531.121,749.746 522.121,734.246 513.5,718.5C 512.311,717.571 510.978,717.238 509.5,717.5C 509.5,716.833 509.833,716.5 510.5,716.5C 514.595,716.192 518.595,715.359 522.5,714C 523.056,713.617 523.389,713.117 523.5,712.5C 525.027,712.573 526.027,711.906 526.5,710.5C 527.167,710.5 527.833,710.5 528.5,710.5C 531.157,710.065 533.491,709.065 535.5,707.5C 537.713,706.227 540.046,705.227 542.5,704.5C 545.29,704.051 547.956,704.051 550.5,704.5C 557.333,716.167 564.167,727.833 571,739.5C 572.252,742.014 572.752,744.68 572.5,747.5C 574.973,747.088 576.306,748.088 576.5,750.5 Z"/></g>
<g><path style="opacity:1" fill="#7e591e" d="M 314.5,705.5 C 316.027,705.427 317.027,706.094 317.5,707.5C 315.973,707.573 314.973,706.906 314.5,705.5 Z"/></g>
<g><path style="opacity:1" fill="#ae7d2a" d="M 330.5,700.5 C 330.833,700.5 331.167,700.5 331.5,700.5C 331.829,703.228 331.163,705.562 329.5,707.5C 329.448,705.097 329.781,702.764 330.5,700.5 Z"/></g>
<g><path style="opacity:1" fill="#bb852c" d="M 317.5,707.5 C 320.443,707.98 323.11,708.98 325.5,710.5C 322.083,710.977 319.416,709.977 317.5,707.5 Z"/></g>
<g><path style="opacity:1" fill="#ab8c4e" d="M 535.5,707.5 C 533.491,709.065 531.157,710.065 528.5,710.5C 530.176,708.166 532.509,707.166 535.5,707.5 Z"/></g>
<g><path style="opacity:1" fill="#736141" d="M 389.5,704.5 C 389.829,707.228 389.163,709.562 387.5,711.5C 387.171,708.772 387.837,706.438 389.5,704.5 Z"/></g>
<g><path style="opacity:1" fill="#816e48" d="M 526.5,710.5 C 526.027,711.906 525.027,712.573 523.5,712.5C 522.167,712.833 520.833,713.167 519.5,713.5C 521.176,711.166 523.509,710.166 526.5,710.5 Z"/></g>
<g><path style="opacity:1" fill="#ac8d4d" d="M 523.5,712.5 C 523.389,713.117 523.056,713.617 522.5,714C 518.595,715.359 514.595,716.192 510.5,716.5C 513.189,714.883 516.189,713.883 519.5,713.5C 520.833,713.167 522.167,712.833 523.5,712.5 Z"/></g>
<g><path style="opacity:1" fill="#fdc454" d="M 508.5,717.5 C 508.833,717.5 509.167,717.5 509.5,717.5C 510.978,717.238 512.311,717.571 513.5,718.5C 522.121,734.246 531.121,749.746 540.5,765C 538.68,765.2 537.347,766.034 536.5,767.5C 524.921,772.247 512.921,775.58 500.5,777.5C 501.263,776.732 502.263,776.232 503.5,776C 494.333,760.167 485.167,744.333 476,728.5C 474.644,727.62 473.144,727.286 471.5,727.5C 473.167,726.833 474.833,726.167 476.5,725.5C 476.833,725.5 477.167,725.5 477.5,725.5C 480.874,725.326 484.207,724.826 487.5,724C 488.056,723.617 488.389,723.117 488.5,722.5C 490.717,721.631 493.05,721.298 495.5,721.5C 497.898,721.741 499.898,721.074 501.5,719.5C 501.833,719.5 502.167,719.5 502.5,719.5C 504.898,719.741 506.898,719.074 508.5,717.5 Z"/></g>
<g><path style="opacity:1" fill="#bd984e" d="M 508.5,717.5 C 506.898,719.074 504.898,719.741 502.5,719.5C 503.99,717.72 505.99,717.054 508.5,717.5 Z"/></g>
<g><path style="opacity:1" fill="#7b6642" d="M 387.5,711.5 C 386.822,716.572 385.822,721.572 384.5,726.5C 383.549,725.081 383.216,723.415 383.5,721.5C 384.71,718.111 386.043,714.778 387.5,711.5 Z"/></g>
<g><path style="opacity:1" fill="#b28f4c" d="M 501.5,719.5 C 499.898,721.074 497.898,721.741 495.5,721.5C 496.99,719.72 498.99,719.054 501.5,719.5 Z"/></g>
<g><path style="opacity:1" fill="#a8884a" d="M 488.5,722.5 C 488.389,723.117 488.056,723.617 487.5,724C 484.207,724.826 480.874,725.326 477.5,725.5C 477.611,724.883 477.944,724.383 478.5,724C 481.793,723.174 485.126,722.674 488.5,722.5 Z"/></g>
<g><path style="opacity:1" fill="#ad8743" d="M 386.5,726.5 C 394.007,727.22 401.34,728.22 408.5,729.5C 402.162,729.233 395.829,728.9 389.5,728.5C 388.5,727.833 387.5,727.167 386.5,726.5 Z"/></g>
<g><path style="opacity:1" fill="#fdbc47" d="M 389.5,728.5 C 395.829,728.9 402.162,729.233 408.5,729.5C 410.5,729.5 412.5,729.5 414.5,729.5C 418.647,730.325 422.981,730.825 427.5,731C 438.085,748.168 448.418,765.501 458.5,783C 457.584,783.278 456.918,783.778 456.5,784.5C 443.315,786.381 429.981,786.714 416.5,785.5C 418.527,785.662 420.527,785.495 422.5,785C 411.615,766.057 400.615,747.224 389.5,728.5 Z"/></g>
<g><path style="opacity:1" fill="#ac8948" d="M 476.5,725.5 C 474.833,726.167 473.167,726.833 471.5,727.5C 462.848,728.319 454.182,728.986 445.5,729.5C 455.649,727.764 465.983,726.43 476.5,725.5 Z"/></g>
<g><path style="opacity:1" fill="#fdbf4d" d="M 471.5,727.5 C 473.144,727.286 474.644,727.62 476,728.5C 485.167,744.333 494.333,760.167 503.5,776C 502.263,776.232 501.263,776.732 500.5,777.5C 494.46,779.679 488.127,781.179 481.5,782C 473.596,783.013 465.762,784.179 458,785.5C 457.617,784.944 457.117,784.611 456.5,784.5C 456.918,783.778 457.584,783.278 458.5,783C 448.418,765.501 438.085,748.168 427.5,731C 422.981,730.825 418.647,730.325 414.5,729.5C 424.833,729.5 435.167,729.5 445.5,729.5C 454.182,728.986 462.848,728.319 471.5,727.5 Z"/></g>
<g><path style="opacity:1" fill="#feab2d" d="M 299.5,822.5 C 313.002,844.833 326.002,867.499 338.5,890.5C 336.833,897.833 335.167,905.167 333.5,912.5C 314.167,912.5 294.833,912.5 275.5,912.5C 283.134,882.296 291.134,852.296 299.5,822.5 Z"/></g>
</svg>
